<?xml version="1.0" encoding="utf-8"?>
<!-- Generator: Adobe Illustrator 23.1.0, SVG Export Plug-In . SVG Version: 6.00 Build 0)  -->
<svg version="1.1" id="Layer_1" xmlns="http://www.w3.org/2000/svg" xmlns:xlink="http://www.w3.org/1999/xlink" x="0px" y="0px"
	 viewBox="0 0 279 266" style="enable-background:new 0 0 279 266;" xml:space="preserve">
<path d="M235.5,215c2.8-14.1,0-25.2-11.6-34.4c-2.1-1.6-4-3.5-6.2-5c-7.2-4.9-11.4-11.5-14-19.9c-5.4-17.8-17.6-29.6-35-35.7
	c-20.4-7.2-40.9-7-61.1,1c-16.8,6.7-28,18.9-33,36.4c-2,7.1-5.6,12.7-11.6,16.9c-2,1.4-3.9,3.2-5.9,4.6
	c-14.6,10.7-17.7,24.9-13.2,41.7c7.1,26.4,33.9,35.6,61.5,36.5"/>
<path d="M267.6,106.7c-0.5-11.4-3.7-21.7-12.2-29.7c-10.4-9.9-25-9.9-35.6-0.2c-16.5,15.1-16.4,45.6,0.1,60.6
	c10.5,9.5,24.8,9.5,35.2-0.1C264,129,267.3,118.4,267.6,106.7z"/>
<path d="M11.4,107c0.4,11.4,3.6,21.7,12,29.8c10.5,10.1,25.3,10.2,35.9,0.3c16.2-15.1,16.2-45.2-0.1-60.2
	c-10.6-9.7-25.1-9.7-35.6,0.1C15,85.1,11.8,95.5,11.4,107z"/>
<path d="M207,46.8c-0.2-11.5-3.3-21-10.5-28.8C185.4,6,169,6,157.7,17.9c-14.2,15-14.2,42.1-0.1,57.1c11.2,11.9,27.6,12,38.8,0.1
	C204,66.9,206.9,56.8,207,46.8z"/>
<path d="M72,46.4c0.1,10.7,3,20.4,10.4,28.4c11.2,12.2,27.8,12.3,39.1,0.1c13.9-15,14-41.7,0.1-56.7C110.2,5.9,93.4,5.9,82.2,18.4
	C75.1,26.4,72.2,35.9,72,46.4z"/>
</svg>
