<?xml version="1.0" encoding="utf-8"?>
<!-- Generator: Adobe Illustrator 23.1.0, SVG Export Plug-In . SVG Version: 6.00 Build 0)  -->
<svg version="1.1" id="Layer_1" xmlns="http://www.w3.org/2000/svg" xmlns:xlink="http://www.w3.org/1999/xlink" x="0px" y="0px"
	 viewBox="0 0 299 303" style="enable-background:new 0 0 299 303;" xml:space="preserve">
<path d="M130.3,272.7c-35.6,13.5-73.1-7.8-80.3-45.2c-2.7-13.9,0.5-25.8,12-34.8c2.1-1.7,4-3.5,6.2-5c7.4-5,11.8-11.7,14.3-20.3
	c4.2-14.6,13.6-25.7,27.3-32.2c23.9-11.4,48.3-11.5,72.4-0.6c14.9,6.8,24.6,18.6,29.1,34.3c2.1,7.2,5.7,13,11.8,17.3
	c1.4,0.9,2.6,2,3.9,3.1c17,13.4,20.8,26.1,14,46.6"/>
<path d="M18.5,118.8c0.3-10.7,3.2-20.4,10.5-28.4c11.1-12.2,27.9-12.1,39.1-0.1c13.9,15,13.9,41.7,0.1,56.7
	c-11.2,12.1-28,12.2-39.1,0C21.7,139.2,18.8,129.5,18.5,118.8z"/>
<path d="M214.5,118.8c0.3-10.7,3.1-20.4,10.5-28.4c11.1-12.2,27.9-12.2,39.1-0.1c13.9,15,14,41.7,0.1,56.7
	c-11.2,12.1-28,12.2-39.1,0.1C217.7,139.2,214.8,129.5,214.5,118.8z"/>
<path d="M79.1,58.5c0.2-11.5,3.3-21,10.5-28.8c11.1-12,27.5-12,38.8-0.1c14.1,15,14.1,42.1,0.1,57.1c-11.2,11.9-27.6,12-38.8,0.1
	C82.1,78.6,79.1,68.6,79.1,58.5z"/>
<path d="M214,58.1c-0.1,10.7-3,20.4-10.3,28.4c-11.2,12.3-27.8,12.3-39.1,0.2c-14.1-15.1-14-42.2,0.2-57.1
	c11.2-11.9,27.6-11.8,38.8,0.2C210.9,37.8,213.9,47.4,214,58.1z"/>
</svg>
