<?xml version="1.0" encoding="utf-8"?>
<!-- Generator: Adobe Illustrator 23.1.0, SVG Export Plug-In . SVG Version: 6.00 Build 0)  -->
<svg version="1.1" id="Layer_1" xmlns="http://www.w3.org/2000/svg" xmlns:xlink="http://www.w3.org/1999/xlink" x="0px" y="0px"
	 viewBox="0 0 263 239" style="enable-background:new 0 0 263 239;" xml:space="preserve">
<g>
	<path d="M46.8,181.7c0.7-15.5,9.3-30.5,26.9-39.9c5.7-3,9.6-7.1,12.6-12.9c9.4-18.1,24.6-27.9,45-27.8c20.2,0.1,35.2,9.9,44.5,27.9
		c2.9,5.6,6.7,9.6,12.2,12.5c24.8,12.9,34.3,42.6,21.8,67.1c-12.7,24.7-42.6,34.4-67.5,21.5c-7.8-4.1-14.9-3.9-22.7,0.1
		C86.1,247.5,46.7,223.4,46.8,181.7z"/>
	<path d="M5,64.6c4.5-2.6,8.5-4.9,13.4-7.7c2,11.3,10,11.3,18.9,11.6c4.7,0.2,10.2,3,13.7,6.3c9.3,9,16,20.2,19,32.8
		c3.4,13.8-4.7,27.4-17.8,32.6c-12.9,5.1-27.6,0.6-35.1-11.2c-3.9-6.2-7.7-12.5-11-19c-5-10-4.4-20.2,2.1-29.3
		c2.8-3.9,2.7-6.5,0.2-10C7.2,68.9,6.3,66.9,5,64.6z"/>
	<path d="M78,22.8c-1.1-4.3-2.1-8.3-3.2-12.8c4.7-1.3,9.1-2.5,14.1-3.9c1,3.3,1.7,6.7,3,9.8c0.5,1.3,2.1,2.9,3.4,3.1
		c13.8,2.2,22.5,9.9,26,23.5c1.7,6.4,3.7,12.8,4.8,19.3c2.4,13.8-6,27.3-19.2,31.9c-12.9,4.5-28.8-0.4-34.4-12.8
		C68,70.7,65,59.2,63.7,48C62.4,37.3,68.7,28.7,78,22.8z"/>
	<path d="M173.1,6.1c4.8,1.3,9.3,2.5,14.2,3.8c-1.1,4.4-2.1,8.5-3.2,12.8c8.1,5.4,13.4,12.6,14.2,22.4c0.3,3.7-0.2,7.6-0.9,11.3
		c-1.2,5.9-2.9,11.6-4.6,17.4c-4.6,15.6-20.2,24.6-35.5,20.6c-15.7-4.2-24.9-19.6-21.1-35.6c1.5-6.1,3.1-12.3,4.9-18.3
		c3.6-11.7,11.6-19,23.6-21c4.2-0.7,5.5-2.5,6.2-6C171.4,11.1,172.3,8.8,173.1,6.1z"/>
	<path d="M244.1,57.1c4.6,2.7,8.6,5,13.3,7.8c-7.2,6.8-6,13.1-1.1,20.8c4.8,7.7,3.5,16.8-0.8,24.9c-3.2,6-6.6,11.9-10.2,17.7
		c-8.6,13.6-25.7,17.9-39.3,10c-13.7-7.9-18.7-24.8-11.3-39c3.1-5.9,6.4-11.7,9.9-17.3c6.2-9.9,15.2-15,26.8-14
		c5,0.4,7.7-0.9,9.5-5.4C241.7,60.8,242.9,59.2,244.1,57.1z"/>
</g>
</svg>
