<?xml version="1.0" encoding="utf-8"?>
<!-- Generator: Adobe Illustrator 23.1.0, SVG Export Plug-In . SVG Version: 6.00 Build 0)  -->
<svg version="1.1" id="Layer_1" xmlns="http://www.w3.org/2000/svg" xmlns:xlink="http://www.w3.org/1999/xlink" x="0px" y="0px"
	 viewBox="0 0 162 233" style="enable-background:new 0 0 162 233;" xml:space="preserve">
<g>
	<path d="M43.1,130.9c-7.9,0-15.2,0-22.5,0c-7.8,0-8.1-0.3-8.1-8.3c0-8.3,0-16.7,0-25c0-8.1,0.2-8.3,8.6-8.3c7.1,0,14.3,0,22,0
		c0-6.7-0.3-12.8,0.1-18.9c0.4-6.8,0.5-13.7,2.1-20.3C50.1,30,66.3,16.8,87.3,15.8c10-0.5,20-0.1,30-0.2c3.8,0,5.4,1.8,5.4,5.5
		c0,9.5,0,19,0,28.5c0,3.8-1.9,5.3-5.6,5.3c-6.8,0-13.7,0.1-20.5,0.4c-7.5,0.4-10,3-10.1,10.6c-0.1,7.3,0,14.6,0,22.7
		c8.1,0,16.1,0,24,0c11.2,0,11.2,0,11.2,11.4c0,8.2-0.1,16.3,0,24.5c0.1,4.5-1.9,6.3-6.3,6.2c-9.5-0.1-18.9,0-29,0
		c0,2.4,0,4.4,0,6.3c0,24.8,0,49.7,0,74.5c0,7.8-0.7,8.5-8.6,8.5c-8.8,0-17.7,0-26.5,0c-7.6,0-8.3-0.7-8.3-8.2c0-24.8,0-49.7,0-74.5
		C43.1,135.4,43.1,133.4,43.1,130.9z"/>
</g>
</svg>
