<?xml version="1.0" encoding="utf-8"?>
<!-- Generator: Adobe Illustrator 23.1.0, SVG Export Plug-In . SVG Version: 6.00 Build 0)  -->
<svg version="1.1" id="Layer_1" xmlns="http://www.w3.org/2000/svg" xmlns:xlink="http://www.w3.org/1999/xlink" x="0px" y="0px"
	 viewBox="0 0 130 130" style="enable-background:new 0 0 130 130;" xml:space="preserve">
<g>
	<path d="M64.9,129.2c-9.3,0-18.6,0-27.9,0c-20.8-0.1-36-15.3-36-36.1c0-18.5,0-37,0-55.6c0-20.8,15.3-36,36.1-36
		c18.5,0,37,0,55.6,0c20.8,0,36,15.3,36,36.1c0,18.5,0,37,0,55.6c0,20.8-15.3,35.9-36.1,36C83.4,129.3,74.1,129.2,64.9,129.2z
		 M64.9,30.5c-19.3,0-35,15.6-35,35c0,19.2,15.5,34.8,34.8,34.9c19.3,0.1,35.1-15.5,35.1-34.9C99.8,46.2,84.2,30.5,64.9,30.5z
		 M102,38.9c5.7,0,10.6-5,10.6-10.7c-0.1-5.8-5-10.6-10.7-10.6c-5.8,0.1-10.6,5-10.6,10.7C91.4,34.1,96.3,39,102,38.9z"/>
	<path d="M92.3,65.4c0,15.1-12.3,27.4-27.4,27.5c-15.2,0-27.6-12.3-27.5-27.5C37.4,50.2,49.8,38,64.9,38C80,38,92.3,50.3,92.3,65.4z
		"/>
	<path d="M102.1,31.4c-1.7,0-3.4-1.6-3.3-3.2c0.2-1.8,1.2-2.9,3-3c1.6-0.1,3.2,1.5,3.1,3.1C104.9,30.2,103.7,31.2,102.1,31.4z"/>
</g>
</svg>
