<?xml version="1.0" encoding="utf-8"?>
<!-- Generator: Adobe Illustrator 23.1.0, SVG Export Plug-In . SVG Version: 6.00 Build 0)  -->
<svg version="1.1" id="Layer_1" xmlns="http://www.w3.org/2000/svg" xmlns:xlink="http://www.w3.org/1999/xlink" x="0px" y="0px"
	 viewBox="0 0 183 186" style="enable-background:new 0 0 183 186;" xml:space="preserve">
<g>
	<path d="M23.7,49.3c0-8.3,0-16.2,0-24.2c0-2.8,0-5.5,0-8.3C23.9,10,28.8,5.1,35.6,5c7.5-0.1,15,0,22.5,0c29,0,58,0.2,86.9-0.1
		c8.5-0.1,15.2,4.5,14.7,14.9c-0.5,9.7-0.1,19.4-0.1,29.6c3.7,0,7.2,0,10.7,0c6.5,0,10,3.5,10,10.1c0,37.6,0,75.3,0,112.9
		c0,6.5-3.6,10-10.1,10c-52.4,0-104.8,0-157.3,0c-6.5,0-10-3.5-10-10.1C3,134.6,3,97,3,59.3c0-6.5,3.5-10,10.1-10
		C16.5,49.3,20,49.3,23.7,49.3z M113.1,111.7c0.7-0.4,1-0.6,1.2-0.8c12.7-12.6,25.4-25.2,38-37.9c1-1,1.4-2.9,1.4-4.3
		c0.1-16.5,0.1-33,0.1-49.5c0-6.4-1.8-8.2-8.3-8.2c-35.9,0-71.8,0-107.7,0c-6.5,0-8.2,1.7-8.2,8.2c0,16.4-0.1,32.8,0.1,49.2
		c0,1.8,0.9,4.1,2.2,5.4c10.4,10.6,21.1,21.1,31.6,31.6c2.1,2.1,4,4.4,6.3,6.9c5.2-5.4,9.9-10.2,14.6-14.9c5-5,9.7-4.9,14.7,0.1
		C103.8,102.1,108.5,106.9,113.1,111.7z M169.7,176.2c-1.1-1.2-1.6-1.9-2.3-2.5c-24.1-24-48.3-48-72.4-72c-2.8-2.8-4-2.7-6.9,0.2
		c-23.9,23.8-47.8,47.5-71.7,71.3c-0.8,0.8-1.6,1.7-2.9,3.1C65.9,176.2,117.4,176.2,169.7,176.2z M9.3,59.8c0,37.7,0,74.6,0,112.1
		c18.8-19.2,37.2-37.9,55-56C46.4,97.6,28.1,79,9.3,59.8z M174.2,171.4c0-37.1,0-73.9,0-111c-18.6,19-37,37.7-54.5,55.5
		C137.3,133.8,155.6,152.4,174.2,171.4z M14.4,55.5c3.1,3.2,6.1,6.2,9.1,9.3c0-3,0-6,0-9.3C20.3,55.5,17.4,55.5,14.4,55.5z
		 M159.9,55.5c0,3.3,0,6.3,0,8.8c2.9-2.8,6-5.8,9.2-8.8C166.1,55.5,163.1,55.5,159.9,55.5z"/>
</g>
</svg>
