<?xml version="1.0" encoding="utf-8"?>
<!-- Generator: Adobe Illustrator 23.1.0, SVG Export Plug-In . SVG Version: 6.00 Build 0)  -->
<svg version="1.1" id="Layer_1" xmlns="http://www.w3.org/2000/svg" xmlns:xlink="http://www.w3.org/1999/xlink" x="0px" y="0px"
	 viewBox="0 0 204 173" style="enable-background:new 0 0 204 173;" xml:space="preserve">
<g>
	<path d="M1.8,152.3c21.5,0.9,41.2-4.2,59.3-17.9c-19-2.2-31.6-11.6-38.9-29.5c6.1,0,11.3,0,16.5,0c-18.8-7.8-29.6-21-31-41.7
		c5.8,1.6,11.1,3.1,16.5,4.5c0.3-0.3,0.6-0.6,0.9-0.9C8.4,51.3,2.9,33.5,13.8,11.6C36.7,38,64.7,53,99.9,55.3
		c0-5.8-0.7-11.4,0.1-16.6C102.6,23,111.8,12,126.7,6.5C141.8,1,156,3.6,168.3,14c3,2.5,5.4,3.2,8.9,1.9c6.8-2.6,13.6-5.1,20.7-7.8
		c-2.6,9.2-8.8,15.7-15.7,22.2c6.8-1.9,13.6-3.7,20.4-5.6c0.3,0.3,0.7,0.7,1,1c-5.6,5.7-11,11.6-16.9,17c-2.6,2.3-3.7,4.4-3.7,7.9
		c0.1,56.2-37.7,104.6-91.3,116.9C61.1,174.6,24.8,168.6,1.8,152.3z"/>
</g>
</svg>
