<?xml version="1.0" encoding="utf-8"?>
<!-- Generator: Adobe Illustrator 23.1.0, SVG Export Plug-In . SVG Version: 6.00 Build 0)  -->
<svg version="1.1" id="Layer_1" xmlns="http://www.w3.org/2000/svg" xmlns:xlink="http://www.w3.org/1999/xlink" x="0px" y="0px"
	 viewBox="0 0 170 120" style="enable-background:new 0 0 170 120;" xml:space="preserve">
<g>
	<path d="M84.9,3.4c14.5,0,29-0.2,43.6,0.1c5.6,0.1,11.2,0.7,16.6,1.8c13.6,2.6,20.1,8.9,21.3,22.6c1.8,21.2,2.3,42.6-0.2,63.8
		c-2.1,17.7-11.1,25.5-28.8,27.3c-4.3,0.4-8.6,0.7-12.9,0.7c-27.3,0-54.6,0.1-82-0.1c-5.6,0-11.4-1-16.9-2.2
		c-12.7-2.9-20-11.2-22.1-23.9C2.7,88.7,2.2,84,2.1,79.3c-0.2-14-0.2-28,0-41.9c0.1-4.9,0.7-9.9,1.7-14.7
		c1.7-8.2,6.9-13.8,14.9-15.8c7.1-1.8,14.6-3,21.9-3.3C55.4,3.1,70.1,3.4,84.9,3.4z M65.7,60.9c0,5.7-0.1,11.4,0,17.1
		c0.1,5.3,3.8,7.6,8.5,5.2c11.1-5.7,22.1-11.4,33-17.4c1.7-0.9,3.5-3.4,3.5-5.1c0-1.7-1.9-4.1-3.6-5c-10.8-5.9-21.8-11.5-32.8-17.2
		c-4.8-2.5-8.6-0.2-8.6,5.3C65.7,49.5,65.7,55.2,65.7,60.9z"/>
</g>
</svg>
