<?xml version="1.0" encoding="utf-8"?>
<!-- Generator: Adobe Illustrator 23.1.0, SVG Export Plug-In . SVG Version: 6.00 Build 0)  -->
<svg version="1.1" id="Layer_1" xmlns="http://www.w3.org/2000/svg" xmlns:xlink="http://www.w3.org/1999/xlink" x="0px" y="0px"
	 viewBox="0 0 324 276" style="enable-background:new 0 0 324 276;" xml:space="preserve">
<style type="text/css">
	.st0{fill:#060505;}
	.st1{fill:#060605;}
	.st2{fill:#769AFF;}
	.st3{fill:#070506;}
	.st4{fill:#B42C2C;}
	.st5{fill:#070606;}
	.st6{fill:#F9DEC0;}
	.st7{fill:#FFCEA1;}
	.st8{fill:#506FB5;}
	.st9{fill:#F3CC9A;}
	.st10{fill:#D63C3C;}
</style>
<g>
	<path class="st0" d="M107,253.1c-0.9,3-2.7,4.3-5.9,4c-2.1-0.2-4.3,0-6.5-0.1c-5.1-0.3-8.6-3.4-8.7-8.4c-0.2-17-0.1-34,0-51
		c0-4.9,3.2-7.8,8.1-8.6c1.2-0.2,3.2,1,3.4-1.6c0.2-2.2-1.4-2.7-2.9-3.4c-9.1-4.4-17.8-9.6-26.6-14.6c-17.5-10-25.2-25.7-28.3-44.6
		c-2.5-15.1-4.8-30.3-2.7-45.7c1-7.4,4.6-11.5,10-11.9c5-0.4,10.3,3.5,12,10.2c2.1,8.7,3.6,17.6,5,26.4c0.5,3,1.3,3.8,4.3,3.5
		c4.1-0.4,7.7,1.8,11.1,3.8c8.1,4.8,14.8,11.3,21.3,18c1.4,1.4,2.6,2.9,4.7,3.4c20.8,5,31.8,19.3,36.5,39.3
		c1.1,4.5,1.4,9.2,1.9,13.8c0.2,2.1,0.1,3.5,3.1,3.7c5.5,0.3,8.3,3.6,8.4,9.2c0.1,16.7,0.1,33.3,0,50c0,5.5-3.3,8.6-8.8,8.7
		c-8.3,0.1-16.7,0-25,0.1c-2.8,0-4.4-1.1-4.9-3.8c0.8-3.3,3.3-3.7,6.1-3.7c7.1,0,14.3-0.1,21.4,0c2.7,0,3.9-0.8,3.9-3.7
		c-0.1-15.3-0.1-30.6,0-45.8c0-2.6-1-3.7-3.5-3.6c-14.1,0.1-28.2,0.2-42.3,0.3c-8.8-1.3-9.1-1-9.1,7.6c0,13.5,0.1,26.9-0.1,40.4
		c-0.1,4,1.3,5.5,5.2,5c1.3-0.2,2.6-0.3,3.9-0.4C104.4,249.7,106,251,107,253.1z M71.3,115.8c-0.4-0.2-0.9-0.4-1.3-0.6
		c-4.2-0.9-4.6,1.4-3.5,4.5c0.8,2.4,2.7,4.1,4.3,6c5,5.9,11.2,10.7,15.3,17.4c-2.4,4.8-4.2,5.3-7.7,1.7
		c-5.2-5.4-10.3-10.9-15.3-16.5c-2.7-3-4.2-6.6-4.9-10.7c-1.8-12-3.9-23.9-6.1-35.9c-0.5-2.8-1.3-6.9-4.9-6.5
		c-3.7,0.3-3.2,4.4-3.4,7.3c-1.1,16.1,0.8,31.9,4.5,47.5c2.2,9.2,4.9,18.4,12.7,24.8c12,9.9,25.5,17.4,39.8,23.5
		c3.3,1.4,4.7,4,4.1,7.6c-0.4,2.4,0.6,3.1,3,3.1c8.3-0.1,16.6-0.2,24.9,0c2.7,0.1,3.3-0.8,3.2-3.4c-0.3-9.1-2.4-17.7-6.6-25.8
		c-4.9-9.9-12.8-16.7-23.4-19.4c-4.8-1.2-8.2-3.5-11.6-6.8C87.6,126.7,80.8,119.5,71.3,115.8L71.3,115.8z"/>
	<path class="st1" d="M238.7,219.2c2.6,1,3.6,2.8,3.6,5.6c-0.2,7.5,0,15-0.1,22.5c-0.1,6.2-3.5,9.7-9.6,9.7c-17,0.1-34,0.1-51,0
		c-5.5,0-8.8-3.2-8.8-8.7c-0.1-16.3-0.1-32.6,0-49c0-5.3,3-9.2,8-10c3.3-0.5,3.3-2,3.5-4.5c0.7-10.4,2.7-20.5,7.9-29.6
		c6.6-11.4,16-19.4,29.1-22.5c2.4-0.6,4.2-1.6,5.9-3.4c6.4-6.8,13.2-13.2,21.2-18.1c4-2.4,8.1-4.8,13.1-4c2.5,0.4,2.3-1.2,2.5-2.6
		c1.3-7.5,2.7-15.1,4-22.6c0.5-3,1.3-5.8,2.9-8.4c2.4-4.2,5.9-7.1,10.9-6.3c5.2,0.8,8,4.5,9.1,9.4c1.4,6.6,1.4,13.3,1,19.9
		c-0.7,14.3-2.9,28.4-6.9,42.2c-3.6,12.3-11.1,21.3-21.6,28.3c-9.4,6.3-19.3,11.7-29.5,16.7c-1.6,0.8-3.6,1.2-3.3,3.7
		c0.3,2.4,2.3,1.3,3.5,1.7c4.3,1.4,7.7,4,7.8,8.7c0,3.9,2.8,8.8-2.9,11.4c-4.8-0.2-4.3-3.8-4.1-6.9c0.2-3.8-1-5.9-5.2-5.9
		c-13.6,0.2-27.1-0.4-40.7,0.4c-7.8-1.4-9-0.5-9,7.1c0,13.5,0.2,27-0.1,40.5c-0.1,4.6,1.5,6,5.7,5.4c1.1-0.2,2.3-0.2,3.5-0.4
		c13.9,0.1,27.8,0.1,41.7,0.3c3.1,0,4-1.4,4-4.2c-0.1-7,0-13.9-0.1-20.9C234.8,221.7,235.7,219.7,238.7,219.2z M256.7,115.8
		L256.7,115.8c-10.4,4.2-17.6,12.4-25.2,20c-2.2,2.2-4.6,3.5-7.6,4.2c-11.5,2.6-20,9.2-25.2,19.9c-4.7,8.1-6.4,17-6.8,26.2
		c-0.1,2.6,1.1,2.9,3.2,2.9c8.3-0.1,16.6-0.1,25,0c2.4,0,3.4-0.7,3-3.1c-0.6-3.6,0.8-6.1,4.1-7.6c13.8-5.9,26.8-13.2,38.6-22.5
		c5.1-4.1,8.5-9.3,10.7-15.3c3.1-8.5,4.8-17.3,6.1-26.2c1.6-11.1,2.4-22.2,1.4-33.3c-0.2-2.4-0.2-5.6-3.3-5.9
		c-3-0.3-3.9,2.9-4.5,5.2c-1,3.7-1.6,7.5-2.1,11.3c-4.6,32.4-4.6,32.4-23.4,52.2c-0.3,0.4-0.7,0.7-1,1.1c-3.6,3.4-5.3,3-7.7-1.8
		c4-6.6,10.1-11.3,14.9-17.1c1.7-2,3.8-3.8,4.7-6.3c1.1-3.1,0.7-5.4-3.6-4.5C257.5,115.4,257.1,115.6,256.7,115.8z"/>
	<path class="st2" d="M189,196.8c13.5-0.8,27.1-0.2,40.7-0.4c4.2,0,5.4,2,5.2,5.9c-0.2,3.1-0.6,6.6,4.1,6.9c-0.1,3.3-0.2,6.7-0.3,10
		c-3,0.5-3.9,2.5-3.9,5.4c0.1,7,0,13.9,0.1,20.9c0,2.9-0.9,4.3-4,4.2c-13.9-0.2-27.8-0.2-41.7-0.3
		C189.1,231.9,189.1,214.4,189,196.8z"/>
	<path class="st2" d="M107,253.1c-1-2-2.5-3.3-4.8-3.7c0-17.5,0-35.1,0-52.6c14.1-0.1,28.2-0.2,42.3-0.3c2.5,0,3.5,1.1,3.5,3.6
		c-0.1,15.3-0.1,30.6,0,45.8c0,2.9-1.2,3.7-3.9,3.7c-7.1-0.1-14.3,0-21.4,0c-2.8,0-5.4,0.4-6.1,3.7
		C113.4,253.2,110.2,253.1,107,253.1z"/>
	<path class="st3" d="M145.7,103.5c-1.7,1-3.6,1.7-5.1,0.3c-7.9-6.8-16.5-13-18.8-24.3c-2.4-12.2,2.3-24.4,12.5-31.4
		c10.1-6.9,23.7-7.2,33.8-0.3c2.9,2,4.6,2.2,7.7,0.2c13-8.5,30.7-5.4,39.8,6.7c9.9,13,8.6,30.8-3.5,41.4
		c-10.9,9.5-22.1,18.7-33.2,27.9c-5.2,4.3-10.2,4.2-15.4,0c-3-2.4-5.7-5.1-8.7-7.5c-2.4-1.9-3.2-4.1-1.8-6.9c6.1-2.3,8.5,3.2,12,6
		c6.1,5,6.7,5.1,12.3-0.3c9.8-8.2,19.9-16.1,29.4-24.6c9.8-8.8,10.6-22.1,2.5-31.7c-7.9-9.4-21.6-10.9-31.8-2.8
		c-4.1,3.3-6.9,3.6-11.1,0c-7.2-6.2-15.6-7.8-24.5-3.2c-13.8,5.9-17.7,24.2-7.4,35.3c2.7,2.9,5.7,5.5,8.8,8.1
		C145.8,98.2,147,100.3,145.7,103.5z"/>
	<path class="st4" d="M145.7,103.5c1.3-3.1,0.1-5.3-2.4-7.3c-3.1-2.5-6.1-5.2-8.8-8.1c-10.3-11.1-6.4-29.4,7.4-35.3
		c-0.3,0.9-0.3,2-0.8,2.8c-6.1,11.2-3.9,26,6.3,34.4c6.4,5.3,12.2,11.3,18.8,16.3c3.8,2.9,6.2,7.5,11.2,8.9
		c-5.6,5.4-6.2,5.2-12.3,0.3c-3.5-2.8-5.9-8.3-12-6C150.6,107.5,148.2,105.5,145.7,103.5z"/>
	<path class="st5" d="M126.3,32.5c0.1,2.9-1.6,5.6-4.1,8c-11.5,10.9-11.7,10.9-23.3,0.2c-4.6-4.2-5.7-9.1-3.1-13.8
		c2.5-4.6,6.8-6.4,12.8-4.9c1.8,0.4,3.2,0,4.8-0.4C120,20,126.2,24.9,126.3,32.5z M113,38c1.4-1.1,2.9-2.1,4.2-3.3
		c1.3-1.1,2.3-2.5,1.1-4.3c-1.3-1.9-3.1-2.1-4.7-0.8c-2.8,2.4-5.2,0.7-7.6-0.5c-1.9-0.5-3.3,0.1-3.9,2c-0.5,1.7,0.4,2.8,1.6,3.9
		c1.5,1.3,3.1,2.5,4.5,3.8C110.3,40.8,111.8,40.1,113,38z"/>
	<path class="st6" d="M100.9,178.4c-14.3-6.1-27.7-13.6-39.8-23.5c-7.8-6.5-10.5-15.6-12.7-24.8c-3.7-15.6-5.6-31.4-4.5-47.5
		c0.2-2.9-0.2-7,3.4-7.3c3.6-0.3,4.3,3.7,4.9,6.5c2.2,11.9,4.3,23.9,6.1,35.9c0.6,4.1,2.2,7.7,4.9,10.7c5,5.6,10.1,11.1,15.3,16.5
		c3.4,3.5,5.2,3,7.7-1.7c4.8-1.3,4.1-4,1.5-6.8c-4.6-5-9.3-10-13.9-14.9c-1.5-1.6-3.4-2.9-2.3-5.5c9.4,3.8,16.1,11,23,17.9
		c3.4,3.4,6.8,5.6,11.6,6.8c10.6,2.7,18.5,9.4,23.4,19.4c-4,1.9-6,5.9-9.2,8.7C114.6,173.7,107.3,175,100.9,178.4z"/>
	<path class="st7" d="M100.9,178.4c6.4-3.4,13.7-4.7,19.5-9.8c3.1-2.8,5.2-6.8,9.2-8.7c4.2,8.1,6.3,16.7,6.6,25.8
		c0.1,2.6-0.6,3.5-3.2,3.4c-8.3-0.2-16.6-0.1-24.9,0c-2.4,0-3.4-0.7-3-3.1C105.5,182.4,104.2,179.8,100.9,178.4z"/>
	<path class="st8" d="M102.2,196.8c0,17.6,0,35.1,0,52.6c-1.3,0.1-2.6,0.2-3.9,0.4c-3.9,0.5-5.2-1.1-5.2-5
		c0.2-13.4,0.1-26.9,0.1-40.4C93.1,195.7,93.4,195.5,102.2,196.8z"/>
	<path class="st7" d="M71.4,115.7c-1.1,2.6,0.8,4,2.3,5.5c4.7,5,9.3,9.9,13.9,14.9c2.6,2.9,3.3,5.5-1.5,6.8
		c-4.1-6.7-10.3-11.5-15.3-17.4c-1.6-1.9-3.5-3.6-4.3-6c-1.1-3.1-0.7-5.4,3.5-4.5C70.5,115.4,70.9,115.6,71.4,115.7L71.4,115.7z"/>
	<path class="st9" d="M71.3,115.8c-0.4-0.2-0.9-0.4-1.3-0.6C70.5,115.4,70.9,115.6,71.3,115.8z"/>
	<path class="st6" d="M241.9,143c2.4,4.8,4.1,5.2,7.7,1.8c0.4-0.3,0.7-0.7,1-1.1c18.8-19.8,18.8-19.8,23.4-52.2
		c0.5-3.8,1.1-7.6,2.1-11.3c0.6-2.3,1.5-5.5,4.5-5.2c3.1,0.3,3.1,3.5,3.3,5.9c1,11.2,0.2,22.3-1.4,33.3c-1.3,8.9-3,17.7-6.1,26.2
		c-2.2,6.1-5.6,11.3-10.7,15.3c-11.8,9.4-24.8,16.7-38.6,22.5c-5.4-3.1-12.1-3.6-16.9-7.9c-3.9-3.5-7.8-7.1-11.6-10.6
		c5.2-10.7,13.7-17.3,25.2-19.9c3.1-0.7,5.4-2,7.6-4.2c7.6-7.6,14.8-15.8,25.1-20.1c1,2.4-0.5,3.7-1.9,5.2
		c-4.8,5.1-9.6,10.1-14.3,15.3C237.7,139.1,237.1,141.7,241.9,143z"/>
	<path class="st7" d="M198.6,159.9c3.9,3.6,7.7,7.2,11.6,10.6c4.8,4.3,11.5,4.8,16.9,7.9c-3.3,1.5-4.7,4-4.1,7.6
		c0.4,2.4-0.6,3.1-3,3.1c-8.3-0.1-16.6-0.1-25,0c-2.2,0-3.4-0.3-3.2-2.9C192.2,176.9,193.9,168,198.6,159.9z"/>
	<path class="st8" d="M189,196.8c0,17.5,0.1,35.1,0.1,52.6c-1.2,0.1-2.3,0.2-3.5,0.4c-4.2,0.6-5.8-0.8-5.7-5.4
		c0.3-13.5,0.1-27,0.1-40.5C180.1,196.4,181.2,195.5,189,196.8z"/>
	<path class="st7" d="M241.9,143c-4.8-1.3-4.2-4-1.5-6.8c4.7-5.1,9.5-10.2,14.3-15.3c1.4-1.5,3-2.8,1.9-5.2c0,0,0.1,0,0.1,0
		c0.4-0.2,0.9-0.4,1.3-0.6c4.2-0.9,4.6,1.4,3.6,4.5c-0.9,2.5-3,4.3-4.7,6.3C252,131.8,245.9,136.4,241.9,143z"/>
	<path class="st9" d="M258,115.2c-0.4,0.2-0.9,0.4-1.3,0.6C257.1,115.6,257.5,115.4,258,115.2z"/>
	<path class="st10" d="M177.4,115.2c-4.9-1.4-7.3-6-11.2-8.9c-6.6-5-12.4-11.1-18.8-16.3c-10.2-8.3-12.4-23.2-6.3-34.4
		c0.5-0.8,0.5-1.9,0.8-2.8c8.9-4.6,17.3-3,24.5,3.2c4.2,3.6,7,3.3,11.1,0c10.2-8.1,23.9-6.6,31.8,2.8c8.1,9.6,7.3,23-2.5,31.7
		C197.3,99.1,187.2,107,177.4,115.2z"/>
	<path class="st10" d="M106,29.2c2.5,1.2,4.8,2.9,7.6,0.5c1.6-1.3,3.4-1.1,4.7,0.8c1.2,1.8,0.2,3.2-1.1,4.3
		c-1.3,1.2-2.8,2.2-4.2,3.3C111,34.8,105.9,34.1,106,29.2z"/>
	<path class="st4" d="M106,29.2c-0.2,4.9,4.9,5.7,7,8.8c-1.3,2.1-2.7,2.8-4.7,0.8c-1.4-1.4-3-2.5-4.5-3.8c-1.2-1-2.1-2.2-1.6-3.9
		C102.8,29.2,104.1,28.6,106,29.2z"/>
</g>
</svg>
