<?xml version="1.0" encoding="utf-8"?>
<!-- Generator: Adobe Illustrator 23.1.0, SVG Export Plug-In . SVG Version: 6.00 Build 0)  -->
<svg version="1.1" id="Layer_1" xmlns="http://www.w3.org/2000/svg" xmlns:xlink="http://www.w3.org/1999/xlink" x="0px" y="0px"
	 viewBox="0 0 364 325" style="enable-background:new 0 0 364 325;" xml:space="preserve">
<style type="text/css">
	.st0{fill:#516889;}
	.st1{fill:#CCCCCC;}
	.st2{fill:#494C56;}
	.st3{fill:#E8E8E8;}
	.st4{fill:#D8D8D8;}
	.st5{fill:#E5CAC6;}
	.st6{fill:#E9F1F4;}
	.st7{fill:#FFFFFF;}
	.st8{fill:#E0BA99;}
	.st9{fill:#6B8C96;}
	.st10{fill:#30211F;}
	.st11{fill:#593E39;}
	.st12{fill:#6784B2;}
</style>
<g>
	<g>
		<path class="st0" d="M12.9,275.9c-0.8,4.8,0.2,9,4.2,12.1c4.8,3.6,10.9,5.9,16.7,7.3c7,1.7,14.3,2,21.5,2c8,0,16.1-0.5,24.1-1.2
			c8-0.7,16-1.8,23.9-3.2c7.2-1.3,14.4-2.8,21.3-5.1c6.4-2.1,12.7-4.9,18.1-9c1.6-1.2,4.3-3.4,3.7-5.8c-0.5-1.9-2.7-2.4-4.4-2.7
			c-3.1-0.5-6.3-0.3-9.4-0.2c-8.7,0.4-17.4,1.3-26.1,1.4c-3.9,0.1-7.9,0-11.7-0.7c-1.8-0.3-3.7-0.8-5.4-1.7
			c-1.3-0.7-3.4-2.1-2.5-3.8c0.7-1.4,2.9-2.4,4.3-3.2c6.1-3.5,13-5.3,19.9-6.4c7.4-1.1,15.1-1.6,22.6-1.3c8.1,0.3,15.5,2.1,22.8,5.6
			c6.3,3.1,12.6,6.2,19.2,8.6c13.1,4.7,27,7.3,40.9,8c14,0.7,28.2-0.7,41.9-4.1c6.7-1.7,13.6-3.7,19.7-6.9
			c5.3-2.8,10.7-7.6,10.6-14.1c-0.1-6.5-6.4-10.1-11.8-12.1c-6-2.2-12.4-3.4-18.8-3.7c-12.8-0.6-26,2.2-37.1,8.5
			c-4,2.3-12.1,6.8-9.6,12.6c2.3,5.3,10.3,5.3,15,4.9c7.5-0.6,14.7-3,21.9-5.2c7.6-2.3,15.2-4.2,23-5.3c14.2-1.9,30.2-2.5,43.6,3.1
			c5.8,2.4,13,6.8,14.2,13.6c1.3,6.8-5.7,10.8-11,13c-6.5,2.6-13.5,4.2-20.3,5.7c-7.4,1.5-14.8,2.6-22.3,2.9
			c-15,0.6-29.6-1.9-42.9-8.8c-13.1-6.8-25.1-15.9-39.8-18.9c-11.3-2.3-26.2-0.6-33.5,9.5c-1.8,2.5-2.8,5.6-1.5,8.5
			c1.2,2.6,3.6,4.3,6.2,5.4c3.3,1.4,7.1,1.5,10.6,1.2c4-0.3,8.1-0.8,12.1-1.3c16.5-1.8,33-3.6,49.5-5.4c8.2-0.9,16.4-1.8,24.6-2.7
			c7.7-0.8,15.7-1.5,23.4-0.1c2,0.4,9.4,1.3,8.1,4.7c-1.2,3-5.8,4.6-8.5,5.8c-6.4,2.9-13.3,4.9-20.2,6.2
			c-30.4,5.8-60.9-1.4-90.6-7.6c-28.7-6.1-58.9-11.3-87.9-3.6c-6.5,1.7-13.1,4.1-18.9,7.5c-2.1,1.2-4.2,3.4-3.1,6
			c1,2.3,3.7,3.4,5.9,4c3.2,0.9,6.7,1,10,1.1c3.7,0.2,7.4,0.1,11.1-0.1c7.5-0.4,15-1.3,22.4-2.3c14.7-1.9,29.6-4.3,44.4-2.8
			c3.5,0.4,7.5,0.7,10.8,2c1,0.4,3.4,1.5,2.5,2.9c-0.9,1.3-3.6,2.2-5,2.8c-6.4,2.9-13.8,5.1-20.9,5c-2.8,0-5.7-0.4-8.1-1.8
			c-1-0.6-1.9-1.4-2.5-2.4c-0.2-0.3-0.3-0.5-0.4-0.8c0,0-0.1-0.2-0.1-0.2c0-0.1,0-0.3,0-0.3c0.2-0.3,0.2-0.4,0.6-0.7
			c0.6-0.5,1.6-1,2.5-1.3c7.2-2.7,15.4-3.2,23-3.9c10.3-0.9,20.6-1.4,30.9-1.7c11-0.3,22.1-0.3,33.1-0.7c14.2-0.6,28.7-2,42.3-6.3
			c6.6-2.1,12.9-4.9,18.9-8.5c6.3-3.8,12.4-7.7,19.7-9.1c13.5-2.7,27.8,1.7,39.5,8.4c1.3,0.8,2.5-1.3,1.2-2
			c-11.8-6.7-25.8-11-39.5-8.9c-7.2,1.1-13.4,4.4-19.5,8.1c-6.1,3.7-12.4,7-19.2,9.3c-24.3,8.2-50.4,6.8-75.7,7.5
			c-10.3,0.3-20.6,0.8-30.9,1.7c-7.9,0.7-16.2,1.3-23.8,3.8c-1.8,0.6-4.2,1.4-5.3,3.2c-1.3,2.2,0.9,4.9,2.5,6.2
			c4.2,3.3,10.5,3.3,15.5,2.6c7.1-1,14.3-3.2,20.6-6.7c2.2-1.2,4.1-3.3,2.4-5.8c-1.7-2.4-5.1-3.1-7.8-3.6
			c-7.1-1.4-14.4-1.7-21.6-1.5c-15,0.5-29.8,3.5-44.7,4.9c-7.4,0.7-14.9,1-22.3,0.5c-3.1-0.2-6.7-0.4-9.4-2.3c-3.7-2.6,1.8-4.9,4-6
			c12.7-6.2,26.9-8.8,40.9-9.3c31.3-1.2,61.4,8.2,91.9,13.5c27.7,4.9,58.3,6.6,84.2-6.3c2.6-1.3,5.8-2.9,7-5.8
			c1-2.5-0.5-4.8-2.8-5.9c-3-1.5-6.6-2-9.9-2.4c-3.8-0.5-7.7-0.5-11.5-0.3c-8,0.4-16,1.5-24,2.4c-8.2,0.9-16.5,1.8-24.8,2.7
			c-8.2,0.9-16.5,1.8-24.8,2.7c-4.1,0.5-8.2,0.9-12.4,1.4c-4,0.4-8,1-11.9,1.1c-3.6,0.1-7.6-0.4-10.5-2.8c-3.2-2.6-2.8-6.1-0.4-9.2
			c3.7-4.8,9.7-7.3,15.5-8.3c14.5-2.7,28.4,4,40.7,11.1c6.5,3.8,12.9,7.7,19.9,10.7c6.5,2.8,13.4,4.6,20.4,5.5
			c14.5,1.9,29.4,0.3,43.6-3c6.6-1.5,13.3-3.2,19.5-6c4.8-2.2,9.8-5.8,10.5-11.5c0.7-6.3-4.3-11.8-9.2-15
			c-5.4-3.6-11.8-5.6-18.2-6.8c-14.7-2.5-30.3-1.1-44.8,2.1c-7.5,1.7-14.8,4.4-22.3,6.3c-3.8,1-7.6,1.8-11.5,2.1
			c-3.2,0.2-6.6,0.2-9.5-1.2c-1.1-0.5-2.2-1.2-2.7-2.3c-0.8-1.7,0.4-3.4,1.5-4.6c2.2-2.3,5.2-4,8-5.6c5.6-3.1,11.8-5.2,18-6.5
			c6.5-1.3,13.2-1.7,19.8-1c6.4,0.6,13.3,2,19,5.1c2.8,1.5,5.8,3.7,6.3,7.1c0.5,3.3-1.2,6.6-3.4,8.9c-4.9,5.1-12.6,7.3-19.2,9.3
			c-27,8.1-56.9,7.8-83.7-1c-6.7-2.2-13-5-19.3-8.2c-6.8-3.4-13.5-6-21.1-7c-7.5-0.9-15.1-0.6-22.6,0.1c-6.9,0.7-13.9,1.8-20.4,4.3
			c-3.1,1.2-6.1,2.6-8.8,4.5c-2.2,1.5-4.4,3.6-3,6.4c1.9,3.9,7.2,4.9,11.1,5.5c8.4,1.1,17.1,0.3,25.5-0.2c4.1-0.3,8.2-0.6,12.2-0.7
			c2.8-0.1,5.9-0.3,8.7,0.3c0.8,0.2,1.5,0.5,1.8,0.7c0,0,0.1,0,0,0.2c0,0-0.1,0.3-0.3,0.7c-0.9,1.5-2.5,2.6-4,3.6
			c-2.8,1.9-5.8,3.5-8.9,4.9c-6.6,2.9-13.6,4.7-20.5,6.2c-7.9,1.7-15.9,2.9-23.9,3.9c-8.1,1-16.3,1.6-24.4,1.8
			c-7.5,0.2-15.1,0.3-22.5-0.8c-6.5-1-12.5-3-18.2-6.2c-1.9-1-3.8-2.2-5-4.1c-1.4-2.1-1.4-4.7-1-7.2
			C15.4,275.1,13.1,274.4,12.9,275.9L12.9,275.9z"/>
	</g>
	<g>
		<path class="st0" d="M15.2,276.2c0.1-0.4,0.2-0.7,0.3-1.1c0,0,0.1-0.3,0-0.1c-0.1,0.2,0-0.1,0.1-0.1c0.1-0.2,0.2-0.3,0.3-0.5
			c0.1-0.1,0.2-0.3,0.3-0.4c0-0.1,0.1-0.1,0.1-0.2c0,0,0.1-0.1,0,0c-0.1,0.2,0,0,0.1-0.1c0.2-0.3,0.4-0.5,0.7-0.7
			c0.1-0.1,0.3-0.2,0.4-0.3c0.1-0.1,0.1-0.1,0.2-0.2c0.2-0.2-0.1,0.1,0,0c0.3-0.2,0.6-0.4,0.9-0.6c0.3-0.2,0.6-0.4,1-0.5
			c0.1-0.1,0.3-0.1,0.4-0.2c0.1,0,0.2-0.1,0.3-0.1c0.1-0.1-0.1,0-0.1,0c0,0,0.1,0,0.1-0.1c1.2-0.5,2.5-0.9,3.8-1.1
			c0.1,0,0.1,0,0.2,0c0.1,0,0.3,0,0.1,0c-0.2,0,0,0,0.1,0c0.1,0,0.1,0,0.2,0c0.3,0,0.5,0,0.8-0.1c0.4,0,0.8,0,1.2,0
			c1.1,0.1,2.4,0.4,3.6,0.7c1.3,0.3,2.6,0.5,3.9,0.7c2.3,0.3,4.6,0.3,6.9,0c2.4-0.3,4.7-0.8,6.9-1.7c2.2-0.8,4.2-2,6.3-3.2
			c1-0.6,1.9-1.2,2.9-1.8c0.5-0.3,1-0.5,1.5-0.8c0.2-0.1,0.5-0.2,0.7-0.4c0.1-0.1,0.2-0.1,0.3-0.2c0,0,0.2-0.1,0.1,0
			c-0.1,0,0.2-0.1,0.2-0.1c2.3-0.9,4.8-1.2,7.3-1.6c0.6-0.1,1.2-0.2,1.9-0.3c0.6-0.1,1-0.9,0.8-1.5c-0.2-0.7-0.8-0.9-1.5-0.8
			c-1.3,0.2-2.6,0.4-3.9,0.6c-1.3,0.2-2.5,0.4-3.8,0.7c-2.3,0.6-4.3,1.8-6.3,3c-2,1.2-3.9,2.5-6.1,3.4c-0.5,0.2-0.9,0.4-1.5,0.6
			c-0.5,0.2-1.1,0.4-1.6,0.5c-1.1,0.3-2.3,0.6-3.4,0.8c-0.2,0-0.3,0-0.5,0.1c-0.1,0-0.1,0-0.2,0c0,0,0.1,0,0,0
			c-0.3,0-0.6,0.1-0.9,0.1c-0.6,0.1-1.2,0.1-1.8,0.1c-1.2,0-2.4,0-3.5-0.1c-2.4-0.2-4.9-0.9-7.3-1.3c-0.7-0.1-1.3-0.2-2-0.2
			c-0.6,0-1.1,0.1-1.7,0.1c-1.3,0.2-2.7,0.5-3.9,1c-3,1.1-5.8,2.9-6.9,6c-0.1,0.3-0.2,0.7-0.3,1.1c-0.1,0.6,0.2,1.3,0.8,1.5
			C14.3,277.2,15.1,276.9,15.2,276.2L15.2,276.2z"/>
	</g>
	<path class="st1" d="M131.2,203.6c-8.1,8.4-15.6,17.3-24.4,24.9c-8.8,7.6-19.2,13.8-30.7,15.4c-1.1,0.2-2.4,0.4-3.1,1.3
		c-0.7,0.9,0.2,2.7,1.3,2.2c-1.1,0.4-1.7,1.8-1.2,2.9c0.5,1,2.1,1.4,3,0.8c-0.9,0.6-1.2,1.9-0.8,2.9c1.5,0.9,3.4,0.6,5.1,0.3
		c14.5-2.7,28.9-6.7,42.1-13.2c13.3-6.5,25.4-15.5,34.4-27.3c1.7-2.2,3.3-4.7,3.4-7.5c0.1-3.1-1.8-6.1-4.4-7.9
		C146.8,192,138,196.6,131.2,203.6z"/>
	<path class="st2" d="M144.4,226.8c0-0.2-0.1-0.4-0.1-0.7c-0.3-1.2-0.6-2.4-1.3-3.4c-0.9-1.2-2.3-1.9-3.7-2.2
		c-1.4-0.3-2.9-0.2-4.4-0.1c-4.8,0.5-9.6,1.7-14.3,2.9c-1.7,0.4-3.6,0.9-4.9,2.2c-1.3,1.2-1.8,3.5-0.7,4.8c0.5,0.6,1.4,1,2.1,1.3
		c1.3,0.7,2.7,1.7,2.9,3.1c0.2,1.3-0.7,2.6-1.8,3.3c-1.1,0.8-2.4,1.2-3.6,1.7c-0.8,0.4-1.7,0.8-2.4,1.4c-0.3,0.2-0.6,0.5-0.8,0.8
		c-0.1,0.3-0.1,0.6-0.1,0.9c0.1,0.7,0.1,1.7,0.3,2.7c3.6-1.4,7.2-2.9,10.7-4.6C130.4,237.1,137.8,232.4,144.4,226.8z"/>
	<path class="st1" d="M243.8,127.4c-7.4,4.6-12.1,12.7-14.2,21.2c-2.1,8.5-1.7,17.3-0.5,26c1.1,8.6,3,17.2,3.8,25.8
		c1.6,16.1-0.5,32.6-6.1,47.8c-0.5,1.3-1.3,2.8,0.1,3.5c1.1,0.4,1.7-0.3,2-1.1c-0.6,3.2,3,4,3.8,0.5c-1.4,0.9,0.1,3.4,1.8,3.1
		c1.7-0.3,2.6-2,3.3-3.5c2-4.7,3.1-9.6,4.4-14.5c4.5-15.9,12-31,22.2-44c5.7-7.3,12.2-14.1,17-22c4.9-7.9,8.1-17.4,6.2-26.5
		c-1.8-9.1-8.7-15.5-17.7-17.1C260.7,124.9,253,121.7,243.8,127.4z"/>
	<path class="st2" d="M264.4,191.5c-0.5-2.3-0.9-4.6-1.2-7c-0.2-1.9-0.3-4-1.2-5.7c-3.1-6.1-10.3-4.1-15.6-3
		c-5.4,1.1-9.1,5.1-8.8,10.8c0.1,1.2,0.2,2.4,0.8,3.4c0.9,1.6,2.5,2.5,3.9,3.7c3.6,2.9,5.9,7.7,5,12.2c-0.6,3.1-2.6,5.7-4.4,8.3
		c-1.6,2.2-3,4.6-4.4,6.9c-0.6,1-1.1,2-1.1,3.2c0,1.3,0.7,2.4,1.3,3.5c1.3,2.3,2.7,4.5,4,6.8C247.2,219.1,254.6,204.4,264.4,191.5z"
		/>
	<path class="st3" d="M168.2,169.1c10.8-11.9,19.9-25.2,30.2-37.5c10.3-12.3,22.2-23.8,36.7-30.6c11.3-5.3,25.7-7.3,35.7,0.3
		c8.9,6.7,11.7,19,11.8,30.1c0.3,27.9-11.7,15.6-34.6,43.5c-13.2,16.1-36.9,32.1-66.4,55c-15.7,12.2-33.2-2.4-53-0.3
		c-5.2,0.6-11.4,0.7-14.8-3.3c-3.4-4.1-2-10.3,0.6-14.9c6.1-11.2,17.2-18.7,28-25.5c2.5-1.6,2.4-2.4,4.9-3.5
		c2.6-1.1,5.5-1.2,8.2-2.6C160.5,177.2,164.6,173.2,168.2,169.1z"/>
	<path class="st2" d="M184.2,175.3c2.8-0.7,5.3-2.4,7.8-3.7s5.5-2.4,8.3-1.6c1.5,0.4,2.9,1.4,4.4,1.9c4.2,1.3,8.6-1.1,11.8-4.1
		c1.8-1.7,3.5-3.7,3.7-6.1c0.1-1.7-0.6-3.3-1.5-4.8c-2.3-3.4-6-5.6-8.7-8.7c-2.8-3-4.6-7.8-2.3-11.2c1.9-2.7,5.6-3.4,8.5-4.9
		c6.8-3.4,9.8-12.7,6.4-19.5c-0.5-1.1-1.2-2-1.9-2.9c-8.2,6.2-15.6,13.8-22.2,21.8c-8.1,9.7-15.5,19.9-23.5,29.7
		c0.4,1.4,0.6,2.8,0.6,4.3c0,2.5-0.5,5.2,0.8,7.3C178,175.4,181.4,176,184.2,175.3z"/>
	<path class="st4" d="M258.5,161.1c-0.6-0.1-1.2,0.2-1.7,0.5c-3.8,2.3-6.9,5.5-10.1,8.7c-18.6,18.5-39.9,34.2-63,46.6
		c-4.4,2.4-8.1,3.8-11,8c-2,2.9-3.7,6-5,9.3c5.4,0.2,10.7-1,15.7-4.9c29.5-22.9,53.2-38.9,66.4-55c3.7-4.5,7.1-8,10.2-10.7
		C260,162.5,259.6,161.2,258.5,161.1z"/>
	<path class="st3" d="M288.4,103.1c3-4.2,3-9.8,2-14.9c-2.7-13-11.6-23.8-18.2-35.4c-4.1-7.3-7.5-16-4.6-23.9
		c2.8-7.6,10.9-12.4,19-12.9c8.1-0.6,16.1,2.4,23.2,6.3c4.9,2.7,9.7,6,12.9,10.5c2.3,3.2,3.6,7.9,0.9,10.7c-1.9,2-5,2.1-7.7,1.6
		c-4-0.8-7.6-2.8-11.3-4.6c-3.7-1.8-7.6-3.3-11.7-3.1c-4.1,0.2-8.2,2.7-9.3,6.6c-1.3,5,2.5,9.6,5.7,13.7
		c7.5,9.4,12.9,20.6,15.6,32.3c2.2,9.7,2.4,20.7-3.4,28.8c-2.7,3.8-6.6,6.6-10.7,8.9c-6,3.2-12.7,5.2-19.5,5.2
		c-6.8-0.1-13.7-2.3-18.8-6.7c-2.9-2.5-5.3-5.7-6.3-9.4c-1-3.7-0.5-7.9,1.8-10.9c2.2-2.9,6-4.5,9.7-4.2c4.2,0.3,6.7,3.3,9.8,5.7
		C273.4,112.2,284.3,108.9,288.4,103.1z"/>
	<path class="st2" d="M322.7,32.9c-3.3-4.6-8-7.8-12.9-10.5c-7.1-3.9-15.1-6.9-23.2-6.3c-8.1,0.6-16.3,5.3-19,12.9
		c-1.8,5-1.1,10.3,0.7,15.4c1.7,0,3.5-0.2,5.2,0.6c2.1,1.1,3.2,3.4,4.6,5.2c2.2,2.7,5.5,4.3,9,4.4c-2.3-3.2-4.2-6.8-3.2-10.5
		c1.1-3.9,5.2-6.4,9.3-6.6c4.1-0.2,8,1.3,11.7,3.1c3.7,1.8,7.3,3.8,11.3,4.6c2.7,0.5,5.8,0.4,7.7-1.6
		C326.3,40.8,325,36.1,322.7,32.9z"/>
	<g>
		<path class="st3" d="M72.9,175.8c7.3-1.1,15,0,21.9,3.1c0.8,0.4,1.6,0.8,2.2,1.4c0.9,0.9,1.3,2.2,1.7,3.4c1.4,5.3,1.5,10.7,1,16.1
			c-0.3,2.7-0.7,5.3-1.3,8c-0.4,2.1-0.6,6.2-1.9,7.8c-4.5,5.7-15.8-18-17.5-21.8C78.3,192.3,72.4,175.8,72.9,175.8z"/>
		<path class="st1" d="M159.1,220c1.2-0.8,2.4-1.7,3.4-2.8c1-1.1,1.8-2.5,2.6-3.8c5.7-10.7,6.9-24.5,0.2-34.7
			c-1.3-1.9-2.8-3.7-4.7-5c-3-2-6.7-2.8-10.3-2.7c-6.9,0.1-13.5,3-19.4,6.6c-7.2,4.4-13.8,10-17.7,17.5c-2.5,4.7-3.7,10.2-3.2,15.6
			c0.6,5.7-1.1,10.8,2.1,15.4c2.2,3.2,8.2,4,12.3,4.4c5.6,0.4,11.5-0.5,16.9-1.9C147.7,226.6,153.7,223.8,159.1,220z"/>
		<path class="st3" d="M87.7,202.2c1.1,9.2,6.2,17.8,13.5,23.3c2,1.5,4.2,2.8,6.5,3.5c6,1.9,12.4,0.3,18.1-2
			c8.7-3.4,17-8.5,23.1-15.7c2.8-3.3,5.1-7.1,7.3-10.9c2.2-3.8,4.4-7.7,5.4-12c1-4.4,0.8-9-0.2-13.4c-1.2-5.6-3.6-11.3-8.2-14.5
			c-5-3.5-11.4-7.1-17.3-6.1c-10.1,1.8-31.1,5.2-44.1,26.9C88.2,187.4,86.8,195,87.7,202.2z"/>
		<path class="st3" d="M127,133.2c8,5.1,15,11.6,21.4,18.7c4.1,4.6,8.1,9.6,9.8,15.6c1.7,6,0.4,13.2-4.4,16.8
			c-5.3,3.9-13.3,2.1-18.4-2.3c-3.3-3-5.7-6.8-7.7-10.8c-1.9-4-2.1-7-2.6-11.2c-0.6-4.5-0.8-9-0.5-13.6
			C124.7,145,127,133.1,127,133.2z"/>
		<path class="st5" d="M129.2,140.6c7.8,3.6,14.3,9.8,18.4,17.3c-3.5-1.3-7.1-2.1-10.8-2.5c-2.3-0.2-4.9-0.2-6.8,1.3
			c-0.1-0.9-0.8-1.9-1-3.1c-0.2-1.5-0.3-3-0.3-4.5C128.7,148.3,129.4,140.7,129.2,140.6z"/>
		<path class="st5" d="M85.1,199.5c0.1-6.1,2.2-12.2,5.8-17.2c-0.3,0.4-9.6-3-10.6-3.3c-0.7-0.2-3.7-1.6-4.2-0.9
			c-0.3,0.5,0.7,2.5,0.9,3C78.8,187.8,80.9,193.9,85.1,199.5z"/>
		<g>
			<path class="st6" d="M95.7,199.3c0.3,0.5,0.6,1,0.9,1.5c2.7,3.4,7.6,3.9,11,1.2c2.2-1.8,3.2-4.6,2.8-7.3c1.6,3.2,0.8,7.2-2.1,9.5
				c-3.4,2.7-8.3,2.2-11-1.2C96.5,201.9,95.9,200.6,95.7,199.3z"/>
			<g>
				<path class="st7" d="M97.5,203.3c2.7,3.4,7.6,3.9,11,1.2c3.4-2.7,3.9-7.6,1.2-11c-2.7-3.4-7.6-3.9-11-1.2
					C95.3,195,94.8,199.9,97.5,203.3z"/>
				<g>
					<path class="st8" d="M97.3,203.4c-2.8-3.5-2.3-8.5,1.2-11.3s8.5-2.3,11.3,1.2c2.8,3.5,2.3,8.5-1.2,11.3
						C105.2,207.4,100.1,206.9,97.3,203.4z M97.7,203.1c2.6,3.2,7.4,3.7,10.6,1.1c3.2-2.6,3.7-7.4,1.1-10.6
						c-2.6-3.2-7.4-3.7-10.6-1.1C95.6,195.1,95.1,199.9,97.7,203.1z"/>
				</g>
				<path class="st9" d="M99.4,202.1c1.8,2.2,5,2.5,7.2,0.8c2.2-1.8,2.5-5,0.8-7.2c-1.8-2.2-5-2.5-7.2-0.8
					C98,196.7,97.6,199.9,99.4,202.1z"/>
				<path class="st10" d="M106.1,202.5c-1.4-0.8-2.8-1.7-3.9-2.9c-1.1-1.2-2-2.6-2.3-4.2c0,0,0.7,0.1,0.8,0.1
					c0.4,0.1,0.8,0.5,1.1,0.7c0.7,0.5,1.3,1.1,1.9,1.8c0.6,0.7,1.1,1.4,1.5,2.1c0.2,0.4,0.4,0.8,0.6,1.2
					C105.8,201.5,106,202.4,106.1,202.5z"/>
				<path class="st7" d="M106.8,196.5c0.1,0.1,0.2,0.3,0.2,0.5c0,0.2,0,0.4-0.1,0.5c-0.2,0.2-0.5,0.2-0.7,0
					c-0.2-0.1-0.4-0.3-0.6-0.5c-0.5-0.5-1.1-0.9-1.7-1.1c-1.1-0.4,0.2-1.1,0.8-1C105.6,195.1,106.4,195.7,106.8,196.5z"/>
			</g>
			<path class="st7" d="M102.8,195.5c-0.1,0.1-0.3,0.2-0.6,0.2c-0.2,0-0.4-0.1-0.6-0.2c-0.1,0-0.2-0.1-0.2-0.2c0,0,0-0.1,0-0.1
				c0.2-0.3,0.7-0.5,1.1-0.5C102.9,194.8,103,195.2,102.8,195.5z"/>
		</g>
		<g>
			<path class="st6" d="M125.5,172.5c0.3,0.5,0.6,1,0.9,1.5c2.7,3.4,7.6,3.9,11,1.2c2.2-1.8,3.2-4.6,2.8-7.3
				c1.6,3.2,0.8,7.2-2.1,9.5c-3.4,2.7-8.3,2.2-11-1.2C126.3,175.1,125.7,173.8,125.5,172.5z"/>
			<g>
				<path class="st7" d="M127.3,176.5c2.7,3.4,7.6,3.9,11,1.2s3.9-7.6,1.2-11c-2.7-3.4-7.6-3.9-11-1.2
					C125.1,168.2,124.6,173.1,127.3,176.5z"/>
				<g>
					<path class="st8" d="M127.1,176.6c-2.8-3.5-2.3-8.5,1.2-11.3c3.5-2.8,8.5-2.3,11.3,1.2c2.8,3.5,2.3,8.5-1.2,11.3
						C135,180.6,129.9,180.1,127.1,176.6z M127.5,176.3c2.6,3.2,7.4,3.7,10.6,1.1c3.2-2.6,3.7-7.4,1.1-10.6
						c-2.6-3.2-7.4-3.7-10.6-1.1C125.4,168.3,124.9,173.1,127.5,176.3z"/>
				</g>
				<path class="st9" d="M129.2,175.3c1.8,2.2,5,2.5,7.2,0.8c2.2-1.8,2.5-5,0.8-7.2c-1.8-2.2-5-2.5-7.2-0.8
					C127.8,169.9,127.4,173.1,129.2,175.3z"/>
				<path class="st10" d="M135.9,175.7c-1.4-0.8-2.8-1.7-3.9-2.9c-1.1-1.2-2-2.6-2.3-4.2c0,0,0.7,0.1,0.8,0.1
					c0.4,0.1,0.8,0.5,1.1,0.7c0.7,0.5,1.3,1.1,1.9,1.8c0.6,0.7,1.1,1.4,1.5,2.1c0.2,0.4,0.4,0.8,0.6,1.2
					C135.6,174.7,135.8,175.6,135.9,175.7z"/>
				<path class="st7" d="M136.6,169.6c0.1,0.1,0.2,0.3,0.2,0.5c0,0.2,0,0.4-0.1,0.5c-0.2,0.2-0.5,0.2-0.7,0
					c-0.2-0.1-0.4-0.3-0.6-0.5c-0.5-0.5-1.1-0.9-1.7-1.1c-1.1-0.4,0.2-1.1,0.8-1C135.4,168.3,136.2,168.9,136.6,169.6z"/>
			</g>
			<path class="st7" d="M132.6,168.7c-0.1,0.1-0.3,0.2-0.6,0.2c-0.2,0-0.4-0.1-0.6-0.2c-0.1,0-0.2-0.1-0.2-0.2c0,0,0-0.1,0-0.1
				c0.2-0.3,0.7-0.5,1.1-0.5C132.7,168,132.8,168.4,132.6,168.7z"/>
		</g>
		<path class="st11" d="M122.2,192c-0.3,0.4-0.6,0.9-0.5,1.4c0.1,0.4,0.3,0.7,0.6,1c0.9,0.8,2.2,1.1,3.4,1.2c1.2,0.1,2.4,0,3.6,0.3
			c0.5-1.4,0.8-2.8,0.9-4.3c0.1-0.6,0.1-1.2,0-1.9c-0.1-0.6-0.5-1.4-1.1-1.6c-0.6-0.3-2.6-0.3-3.4,1.2c-0.3,0.5-0.5,1-0.5,1.5
			C124.1,190.7,122.9,191.2,122.2,192z"/>
		<path class="st11" d="M139.4,197.6c-0.1-0.1-0.3-0.1-0.4,0c-1,1.1-2.4,2-4,2.1c-1.7,0.1-3.2-0.9-4.3-2.1c-0.1-0.1-0.2-0.2-0.2-0.3
			c0-0.1-0.1-0.1-0.1-0.2c-0.6-1.1-1.2-2.2-2-3.1c-0.2-0.3-0.6,0-0.4,0.3c0.1,0.1,0.2,0.3,0.3,0.4c-0.1,0.1-0.1,0.2,0,0.3
			c0.5,0.9,1.1,1.7,1.7,2.5c0.4,0.7,0.7,1.5,0.9,2.3c0.1,0.5,0.3,0.9,0.2,1.4c0,0.5-0.1,0.9-0.3,1.3c-0.3,0.9-0.7,1.7-1.3,2.5
			c-0.6,0.9-1.4,1.6-2.3,2.2c-0.1,0.1-0.1,0.3-0.1,0.4c0.1,0.1,0.2,0.1,0.4,0.1c1.7-1.1,3-2.7,3.7-4.6c0.2-0.5,0.3-1,0.4-1.5
			c0.1-0.5,0-1-0.1-1.5c-0.1-0.5-0.3-1-0.5-1.5c0.4,0.3,0.7,0.6,1.2,0.9c0.8,0.4,1.6,0.7,2.5,0.7c0.8,0,1.6-0.2,2.4-0.6
			c0.9-0.4,1.6-1,2.3-1.7C139.5,197.8,139.5,197.7,139.4,197.6z"/>
		<path class="st2" d="M129.3,182.8c0.5-1.3-0.4-2.7-1.4-3.6c-1-0.9-2.3-1.4-3.4-2.3c-1.8-1.6-2.6-4.2-2-6.5
			c0.5-1.9,1.9-3.6,2.1-5.5c0.2-1.8-0.6-3.5-1.5-5.1c-0.4-0.7-0.9-1.4-1.4-2c-5.2,1.7-10.9,4.3-16.4,8.4c1,1.6,1,4,0.4,5.8
			c-0.4,1.2-1.1,2.4-1.4,3.6c-0.6,2.1-0.2,4.5,1.1,6.3c1.3,1.8,3.4,3,5.6,3.1c3.4,0.2,6.6-2,9.9-1.6c1.5,0.2,2.9,0.9,4.4,1.1
			C127,184.7,128.8,184.2,129.3,182.8z"/>
		<g>
			<path class="st11" d="M138.1,188.7c2.7-4.1,6-7.7,9.7-10.9c3.7-3.2,7.9-5.8,12.3-7.8c2.5-1.2,5.1-2.1,7.8-2.8
				c0.4-0.1,0.3-0.8-0.2-0.7c-4.8,1.3-9.4,3.3-13.6,5.9c-4.2,2.6-8.1,5.8-11.5,9.4c-1.9,2-3.6,4.2-5.2,6.6
				C137.2,188.7,137.8,189.1,138.1,188.7L138.1,188.7z"/>
		</g>
		<g>
			<path class="st11" d="M140.3,190.8c3.8-3.2,8-5.9,12.4-8c4.5-2.1,9.2-3.7,14-4.6c2.7-0.5,5.5-0.8,8.3-1c0.5,0,0.5-0.7,0-0.7
				c-5,0.2-10,1.1-14.8,2.6c-4.8,1.5-9.4,3.6-13.7,6.2c-2.4,1.5-4.7,3.1-6.8,5C139.5,190.6,140,191.1,140.3,190.8L140.3,190.8z"/>
		</g>
		<g>
			<path class="st11" d="M140.7,193.9c8.2-3.1,17.1-4.4,25.8-3.8c2.5,0.2,5,0.5,7.5,1c0.5,0.1,0.7-0.6,0.2-0.7
				c-8.8-1.7-17.8-1.5-26.5,0.6c-2.4,0.6-4.8,1.3-7.1,2.2C140.1,193.4,140.3,194.1,140.7,193.9L140.7,193.9z"/>
		</g>
		<g>
			<path class="st11" d="M115.6,203.6c-1.5,0.4-2.8,1.1-4.1,1.8c-1.3,0.7-2.5,1.5-3.8,2.2c-2.5,1.5-5,3.1-7.4,4.8
				c-4.8,3.4-9.1,7.4-12.2,12.3c-1.8,2.7-3.2,5.7-4.2,8.8c-0.1,0.4,0.6,0.6,0.7,0.2c1.8-5.4,4.9-10.4,8.9-14.5
				c4-4.1,8.8-7.4,13.7-10.3c1.4-0.8,2.8-1.7,4.2-2.5c1.5-0.9,2.9-1.7,4.6-2.1C116.2,204.2,116.1,203.5,115.6,203.6L115.6,203.6z"/>
		</g>
		<g>
			<path class="st11" d="M119,206.8c-2.6,0.9-4.8,2.6-6.7,4.5c-2.1,2.1-4,4.4-5.8,6.7c-1.9,2.4-3.7,4.8-5.2,7.5
				c-1.4,2.5-2.7,5.2-3.7,7.9c-1.1,3.1-2,6.3-2.5,9.6c-0.1,0.5,0.6,0.7,0.7,0.2c0.9-5.7,2.7-11.2,5.5-16.3c1.4-2.6,3.1-5.1,4.9-7.4
				c1.8-2.3,3.7-4.6,5.7-6.7c2.1-2.2,4.4-4.2,7.3-5.2C119.7,207.3,119.5,206.6,119,206.8L119,206.8z"/>
		</g>
		<g>
			<path class="st11" d="M120.6,210.2c-3.4,3.3-6.1,7.3-8.1,11.7c-2.1,4.7-3.4,9.8-3.9,14.9c-0.3,3-0.4,6.1-0.3,9.2
				c0,0.5,0.7,0.5,0.7,0c-0.2-5.3,0.2-10.7,1.5-15.9c1.1-4.7,3-9.2,5.6-13.2c1.4-2.2,3.1-4.3,5-6.1
				C121.5,210.4,121,209.9,120.6,210.2L120.6,210.2z"/>
		</g>
	</g>
	<path class="st3" d="M160.8,214.1c-8.1,8.4-15.6,17.3-24.4,24.9c-8.8,7.6-19.2,13.8-30.7,15.4c-1.1,0.2-2.4,0.4-3.1,1.3
		c-0.7,0.9,0.2,2.7,1.3,2.2c-1.1,0.4-1.7,1.8-1.2,2.9c0.5,1,2.1,1.4,3,0.8c-0.9,0.6-1.2,1.9-0.8,2.9c1.5,0.9,3.4,0.6,5.1,0.3
		c14.5-2.7,28.9-6.7,42.1-13.2c13.3-6.5,25.4-15.5,34.4-27.3c1.7-2.2,3.3-4.7,3.4-7.5c0.1-3.1-1.8-6.1-4.4-7.9
		C176.4,202.5,167.6,207.1,160.8,214.1z"/>
	<g>
		<path class="st4" d="M185.9,209C185.9,209,185.9,209,185.9,209c1.3,1.5,2.1,3.3,2.2,5.3c0.1,2.8-1.4,5.4-2.9,7.7
			c-8.1,12.3-19.7,22.2-32.4,29.5c-0.1,0.1-0.2,0.1-0.3,0.2c0,0,0,0,0.1,0c13.3-6.5,25.4-15.5,34.4-27.3c1.7-2.2,3.3-4.7,3.4-7.5
			C190.5,213.7,188.5,210.8,185.9,209z"/>
	</g>
	<path class="st4" d="M240.9,145.2c1,9.5,3.8,18.9,8,27.7c0.5,0.9,0.9,2,0.5,3c-0.2,0.6-0.8,1-1.3,1.4c-2.1,1.8-6.6,7.2-9.4,4.3
		c-2.2-2.3-2-9.4-2.2-12.3c-0.2-4.1,0-8.2,0.7-12.3c0.4-2.1,0.9-4.1,1.5-6.2C239.2,149.5,241,146.7,240.9,145.2z"/>
	<path class="st3" d="M250.9,130.5c-6.5,5.8-9.9,14.5-10.6,23.2c-0.7,8.7,1.2,17.4,3.7,25.7c2.5,8.3,5.7,16.5,8,24.9
		c4.2,15.7,4.8,32.2,1.7,48.1c-0.3,1.3-0.8,3,0.6,3.4c1.2,0.2,1.7-0.6,1.8-1.4c-0.1,3.2,3.6,3.4,3.9-0.1c-1.3,1.1,0.7,3.3,2.3,2.8
		c1.6-0.5,2.3-2.4,2.7-4c1.2-4.9,1.5-10,2-15c1.8-16.4,8.9-45.2,15.1-60.6c11.8-29.3,3.2-67.7-5.9-67.8
		C266.6,109.6,259,123.3,250.9,130.5z"/>
	<path class="st2" d="M152,251.5c4.1-2,8-4.2,11.8-6.7c-1.4-0.8-3.1-1.1-4.7-1.3c-5-0.5-10.2,0-15,1.4c-3,0.9-6.2,2.2-9.2,1.4
		c-1.8-0.5-3.3-1.6-5-2.3c-7.3,5.2-15.5,9.1-24.3,10.4c-1.1,0.2-2.4,0.4-3.1,1.3c-0.7,0.9,0.2,2.7,1.3,2.2c-1.1,0.4-1.7,1.8-1.2,2.9
		c0.5,1,2.1,1.4,3,0.8c-0.9,0.6-1.2,1.9-0.8,2.9c1.5,0.9,3.4,0.6,5.1,0.3C124.4,262,138.8,258,152,251.5z"/>
	<path class="st2" d="M230.8,112.4c-0.7,0.6-1.4,1.3-1.5,2.1c0,2.1,3.4,2,4.9,3.5c1.3,1.2,0.9,3.4-0.2,4.8c-1.1,1.4-2.8,2.2-4.2,3.1
		c-4.4,2.9-7.6,7.5-8.7,12.7c-0.3,1.5-0.4,3.3,0.5,4.5c1.6,2.1,4.9,1.5,7.3,0.3c5.8-2.8,10.6-7.4,16.6-9.5c6-2.1,14.4-0.3,16.1,5.9
		c0.6,2.3,0.2,4.7-0.1,7c-0.5,2.9-1,5.9-1.5,8.8c-0.7,4.4-0.6,10.2,3.6,11.6c4.1,1.3,7.6-3.1,9.4-6.9c3.4-7,6.2-15.1,3.6-22.5
		c-1-3-2.9-5.6-3.5-8.7c-0.6-3.5,0.5-7,0.5-10.6c0-3.5-1.8-7.7-5.3-8.1c-1.6-0.2-3.1,0.4-4.7,0.7c-6.6,1.2-10.4-3.3-16.2-4.7
		C240.8,104.8,235.5,108.5,230.8,112.4z"/>
	<path class="st12" d="M80.4,248.7c0.4,9.1-6.7,16.7-15.8,17.1c-9.1,0.4-16.7-6.7-17.1-15.8c-0.4-9.1,6.7-16.7,15.8-17.1
		C72.4,232.5,80.1,239.6,80.4,248.7z"/>
	<g>
		<path class="st0" d="M48,253.6c6.5-3.6,12.6-8.3,17.7-13.7c1.5-1.5,2.9-3.1,4.2-4.8c0.4-0.5,0.5-1.2,0-1.7c-0.4-0.4-1.3-0.5-1.7,0
			c-2.3,2.9-4.8,5.6-7.6,8.1c-1.4,1.2-2.8,2.4-4.2,3.6c-0.7,0.5-1.3,1-2.1,1.6c-0.8,0.5-1.5,1.1-2.3,1.6c-1.7,1.2-3.5,2.2-5.3,3.2
			c-0.5,0.3-0.8,1.1-0.4,1.6C46.7,253.7,47.4,253.9,48,253.6L48,253.6z"/>
	</g>
	<g>
		<path class="st0" d="M48.9,258.2c2.1-0.3,3.9-1.7,5.6-3c1.7-1.3,3.4-2.6,5-4c3.2-2.7,6.1-5.7,8.9-8.9c1.6-1.8,3.1-3.8,4.5-5.7
			c0.4-0.5,0.1-1.3-0.4-1.6c-0.6-0.3-1.2-0.1-1.6,0.4c-2.3,3.2-5,6.3-7.8,9.3c-1.4,1.5-2.9,2.9-4.4,4.2c-0.8,0.7-1.6,1.4-2.4,2
			c-0.4,0.3-0.7,0.6-1.1,0.9c-0.2,0.2-0.4,0.3-0.6,0.5c-0.1,0.1-0.2,0.2-0.3,0.2c-0.1,0.1-0.1,0.1-0.1,0.1c-0.1,0.1-0.1,0.1-0.2,0.2
			c-0.9,0.7-1.8,1.4-2.7,2c-1,0.6-1.8,1-3,1.2c-0.6,0.1-1,0.9-0.8,1.5C47.6,258.1,48.2,258.3,48.9,258.2L48.9,258.2z"/>
	</g>
	<g>
		<path class="st0" d="M51.4,261.7c2.1-0.7,4-1.9,5.8-3.2c1.8-1.4,3.5-2.8,5.2-4.2c3.4-2.8,6.7-5.6,9.6-8.8c1.7-1.9,3.2-3.8,4.6-5.9
			c0.3-0.5,0.1-1.3-0.4-1.6c-0.6-0.3-1.3-0.1-1.6,0.4c-2.3,3.5-5.1,6.6-8.3,9.4c-3.1,2.9-6.4,5.5-9.7,8.1c-1.7,1.3-3.8,2.8-5.8,3.5
			c-0.6,0.2-1,0.8-0.8,1.5C50.2,261.4,50.8,261.9,51.4,261.7L51.4,261.7z"/>
	</g>
	<g>
		<path class="st0" d="M55.3,264c7-5,13.6-10.4,20-16.2c1.7-1.5,3.3-3.2,4.6-5.1c0.3-0.5,0.1-1.3-0.4-1.6c-0.6-0.3-1.3-0.1-1.6,0.4
			c-1,1.6-2.4,2.9-3.8,4.3c-1.5,1.4-3.1,2.8-4.6,4.1c-3.1,2.7-6.4,5.4-9.6,7.9c-1.9,1.4-3.7,2.8-5.6,4.2c-0.5,0.4-0.8,1-0.4,1.6
			C54,264.1,54.7,264.4,55.3,264L55.3,264z"/>
	</g>
	<g>
		<path class="st0" d="M50.8,238c-0.6,4.9,1.2,9.8,3,14.3c0.9,2.2,2,4.3,3.5,6.2c1.3,1.6,2.8,3.1,4.5,4.3c1.9,1.4,4.1,2.4,6.3,3
			c0.6,0.2,1.3-0.2,1.5-0.8c0.1-0.6-0.2-1.3-0.8-1.5c-0.5-0.1-0.9-0.3-1.4-0.4c-0.2-0.1-0.4-0.2-0.6-0.3c-0.1-0.1,0,0,0,0
			c-0.1,0-0.1,0-0.2-0.1c-0.1-0.1-0.2-0.1-0.4-0.2c-0.9-0.4-1.7-0.9-2.5-1.4c-0.4-0.3-0.8-0.5-1.2-0.8c-0.1-0.1,0,0,0,0
			c0,0-0.1-0.1-0.1-0.1c-0.1-0.1-0.2-0.1-0.3-0.2c-0.2-0.2-0.4-0.3-0.6-0.5c-0.7-0.6-1.4-1.3-2-2.1c-0.1-0.2-0.3-0.4-0.4-0.5
			c0.1,0.1-0.1-0.1-0.1-0.1c-0.1-0.1-0.2-0.2-0.2-0.3c-0.3-0.4-0.6-0.9-0.8-1.3c-0.6-1-1.1-2-1.6-3.1c-0.2-0.5-0.4-0.9-0.6-1.4
			c-0.2-0.5-0.4-1.1-0.6-1.6c-0.4-1.1-0.8-2.2-1.1-3.4c-0.7-2.5-1.1-5-0.8-7.6c0.1-0.6-0.6-1.2-1.2-1.2
			C51.3,236.9,50.9,237.4,50.8,238L50.8,238z"/>
	</g>
	<g>
		<path class="st0" d="M54,234.8c-0.4,1.3-0.2,2.7,0,4c0.2,1.2,0.6,2.3,0.9,3.5c0.7,2.4,1.4,4.7,2.5,6.9c1.1,2.2,2.4,4.2,4.1,5.9
			c1.8,1.8,3.9,3.2,6.1,4.4c2.5,1.3,5.3,2.4,8.2,2c0.6-0.1,1.2-0.5,1.2-1.2c0-0.6-0.5-1.3-1.2-1.2c-1.2,0.1-2.1,0.1-3.2-0.2
			c-0.6-0.1-1.1-0.3-1.7-0.5c-0.5-0.2-0.9-0.4-1.4-0.6c-2.1-1-4.1-2.3-5.7-3.8c-1.7-1.6-2.9-3.2-4-5.3c-0.3-0.5-0.5-1-0.7-1.5
			c-0.1-0.1-0.1-0.2-0.2-0.4c0-0.1-0.1-0.1-0.1-0.2c0,0,0,0.1,0,0c-0.1-0.3-0.2-0.6-0.3-0.8c-0.4-1.1-0.8-2.1-1.1-3.2
			c-0.4-1.2-0.7-2.4-1-3.6c-0.1-0.3-0.2-0.7-0.2-1c0-0.2-0.1-0.3-0.1-0.5c0-0.1,0-0.2,0-0.4c-0.1-0.7,0-1.2,0.1-1.8
			c0.2-0.6-0.2-1.3-0.8-1.5C54.8,233.8,54.2,234.2,54,234.8L54,234.8z"/>
	</g>
	<g>
		<path class="st0" d="M57.9,233.8c0,2.3,0.8,4.5,1.8,6.6c1,2,2.1,4.1,3.4,5.8c2.4,3.1,5.8,5.1,9.4,6.4c2.1,0.7,4.2,1.2,6.4,1.4
			c0.6,0.1,1.2-0.6,1.2-1.2c0-0.7-0.5-1.1-1.2-1.2c-0.1,0-0.2,0-0.3,0c-0.4,0,0.2,0-0.1,0c-0.2,0-0.5-0.1-0.7-0.1
			c-0.5-0.1-0.9-0.2-1.4-0.3c-0.9-0.2-1.7-0.4-2.6-0.7c-0.4-0.1-0.8-0.3-1.2-0.4c-0.2-0.1-0.4-0.2-0.6-0.3c-0.2-0.1-0.1,0,0,0
			c-0.1-0.1-0.3-0.1-0.4-0.2c-0.8-0.4-1.6-0.8-2.3-1.2c-0.4-0.2-0.8-0.5-1.1-0.8c-0.2-0.1-0.3-0.2-0.5-0.3c0.2,0.1-0.1-0.1-0.1-0.1
			c-0.1-0.1-0.2-0.2-0.3-0.3c-0.7-0.6-1.3-1.2-1.8-1.8c-0.1-0.2-0.3-0.3-0.4-0.5c-0.1-0.2,0.2,0.2-0.1-0.1c-0.1-0.1-0.1-0.2-0.2-0.3
			c-0.3-0.5-0.6-0.9-0.9-1.4c-0.5-0.9-1-1.8-1.5-2.7c-1-2-1.9-4.1-1.9-6.4c0-0.6-0.5-1.2-1.2-1.2C58.4,232.6,57.9,233.1,57.9,233.8
			L57.9,233.8z"/>
	</g>
</g>
</svg>
