<?xml version="1.0" encoding="utf-8"?>
<!-- Generator: Adobe Illustrator 23.1.0, SVG Export Plug-In . SVG Version: 6.00 Build 0)  -->
<svg version="1.1" id="Layer_1" xmlns="http://www.w3.org/2000/svg" xmlns:xlink="http://www.w3.org/1999/xlink" x="0px" y="0px"
	 viewBox="0 0 300 273" style="enable-background:new 0 0 300 273;" xml:space="preserve">
<style type="text/css">
	.st0{fill:#030202;}
	.st1{fill:#D2CFE0;}
	.st2{fill:#070808;}
	.st3{fill:#070809;}
	.st4{fill:#080707;}
	.st5{fill:#DE7E84;}
	.st6{fill:#D15F69;}
	.st7{fill:#F3DF65;}
	.st8{fill:#F0C75F;}
	.st9{fill:#8BD1F1;}
	.st10{fill:#DB7C82;}
	.st11{fill:#8BD0F0;}
</style>
<g>
	<path class="st0" d="M47,244.8c1.8,0.1,3.6,0.2,5.5,0.2c52.9,0,105.7,0,158.6,0c1,0,2,0.1,3,0c2.9-0.2,4.8,1,5.2,4
		c-0.5,2.3-2,3.4-4.2,3.5c-1.2,0.1-2.3,0-3.5,0c-54.5,0-109,0-163.4,0c-2.2,0-4.3-0.1-6.5-0.5c-6.8-1.3-12.1-7.3-12.6-14.3
		c-0.1-1.8-0.1-3.7-0.1-5.5c0-44,0-88,0-132c0-3.1-0.1-5.6-3.3-7.6c-3.2-2-4.6-5.7-4.6-9.5c-0.1-12.5-0.2-25,0-37.5
		C21.2,38.5,27,33.2,34.4,33c5.5-0.1,11-0.1,16.5,0c2.3,0.1,3.7-0.3,3.6-3.1c-0.1-1.9,0.4-3.9,1.3-5.8c2.8-6,8.9-9.3,15.5-8.2
		c6.6,1.1,11.3,6.2,11.9,12.9c0.1,0.8,0.1,1.7,0.1,2.5c0,1.3,0.7,1.7,1.9,1.7c1,0,2,0.1,3,0c2-0.1,4.3,0.8,5.8-0.4
		c1.4-1.1,0.6-3.4,0.9-5.2c1.3-7,7.5-12.1,14.6-11.8c7.2,0.3,13,5.7,13.7,12.8c0.1,0.5,0.2,1,0.1,1.5c-0.4,2.8,1,3.5,3.5,3.2
		c0.5-0.1,1,0,1.5,0c2-0.1,4.4,0.8,5.8-0.4c1.3-1.1,0.6-3.5,0.9-5.3c1.2-6.7,7.2-11.8,14.1-11.8c6.9,0,12.9,5.1,14.1,11.8
		c0.3,1.8-0.5,4.3,0.9,5.2c1.5,0.9,3.9,0.4,5.9,0.4c0.3,0,0.7,0,1,0c3.6-0.1,3.6-0.1,3.9-3.8c0.8-9.4,8.8-15.4,17.8-13.1
		c5.6,1.4,9.2,5.2,10.4,10.9c0.3,1.1,0.4,2.3,0.4,3.5c0,1.9,0.6,2.8,2.6,2.6c1.2-0.1,2.3,0,3.5,0c4.9,0,4.9,0,5.4-4.8
		c0.7-6.8,6.3-12,13.4-12.6c6.8-0.5,13.1,4.2,14.8,10.9c0.5,2.1-0.4,5,1.2,6c1.8,1,4.5,0.4,6.8,0.5c4.2,0,8.3-0.1,12.5,0
		c7.6,0.2,13.2,5.7,13.3,13.4c0.2,12.2,0.1,24.3,0,36.5c0,4.2-1.6,8-5.1,10.3c-2.6,1.7-2.8,3.7-2.8,6.2c0,44.3,0,88.6,0,133
		c0,1.7,0,3.3,0,5c-0.4,7.4-5.9,13.5-13.2,14.8c-4,0.7-8,0.3-12,0.4c-4,0.1-8,0-12,0c-2.6,0-4.6-0.7-5.2-3.6c0.4-3.1,2.3-4.1,5.2-4
		c6.5,0.1,13,0.1,19.5,0c6.9,0,10.3-3.2,10.4-10c0.1-43,0-86,0-129c0-0.3-0.1-0.6-0.2-1c0.1-1,0.3-2,0.3-3c-0.1-6.9,0.7-6-5.7-6
		c-61.2,0-122.5,0-183.7,0c-1.3,0-2.7-0.1-4,0c-2.9,0.2-4.3-1.3-4.7-4c0.7-2.5,2.3-3.5,4.8-3.3c1.2,0.1,2.3,0,3.5,0
		c62.1,0,124.3,0,186.4,0c1.2,0,2.3,0,3.5,0c5.2-0.2,7.4-2.1,7.4-7.2c0.1-11.3,0.1-22.7,0-34c0-5.1-1.8-7.2-6.7-7.4
		c-5.5-0.2-11,0-16.5-0.1c-1.7,0-2.3,0.7-2.4,2.3c-0.2,3-0.7,5.9-2.4,8.5c-3.4,5.1-9.6,7.8-15.1,6.4c-6.7-1.7-10.8-6.5-11.3-13.4
		c-0.3-3.7-0.3-3.8-3.6-3.8c-2.3,0-5-0.9-6.8,0.4c-1.7,1.2-1,4-1.5,6c-1.3,6.2-7.7,11.2-14.2,11.1c-6.6-0.1-12.7-5.3-13.9-11.6
		c-0.4-1.9,0.8-4.4-1.1-5.6c-1.8-1.2-4.2-0.3-6.4-0.4c-0.5,0-1,0-1.5,0c-1.8-0.1-2.8,0.6-2.8,2.6c0,0.8,0,1.7-0.1,2.5
		c-0.7,6.9-6.9,12.4-13.9,12.6c-7.2,0.1-13.6-5.5-14.3-12.6c-0.5-5-0.5-5-5.5-5c-0.7,0-1.3,0-2,0c-3.9,0.1-3.9,0.1-4.2,4.1
		c-0.6,7.4-6.3,13.1-13.6,13.5c-7.1,0.4-13.5-5-14.7-12.2c-0.9-5.4-0.9-5.4-6.3-5.4c-0.3,0-0.7,0-1,0c-4.1,0.1-4.1,0.1-4.5,4.4
		c-0.6,7.1-6.2,12.7-13.3,13.2c-6.8,0.5-13.4-4.5-14.9-11.4c-1.4-6.2-1.4-6.2-7.9-6.2c-2,0-4-0.4-5.9,0.4c-1.2-0.7-2.6-0.4-3.9-0.4
		c-6.6,0-8.9,2.2-8.9,8.9c0,7,0,13.9,0,20.9c0,3.5,0.2,7,0,10.4c-0.3,4.9,2.8,9.3,8.4,8.5c1.5-0.2,3-0.2,4.4-0.3
		c3.5,0.1,7,0.3,10.5,0.2c2.5,0,4.2,0.8,4.8,3.3c-0.4,3.1-2.3,4.1-5.3,4c-3.8-0.1-7.7-0.1-11.5,0c-3.3,0-3.3,0.1-3.3,3.3
		c0,1,0,2,0,3c0,34.5,0,69,0,103.5c0,9.7-0.1,19.3,0,29C36.3,241.9,39.9,245,47,244.8z M195.8,40c0.1-3.1,0.2-6.3,0.1-9.4
		c-0.1-4.5-3-7.6-6.9-7.5c-3.9,0-6.8,3-6.9,7.5c-0.1,3.1,0.1,6.3,0.2,9.4c0,1.5-0.3,3-0.1,4.5c0.6,3.6,3.5,5.8,7.1,5.7
		c3.6-0.1,6.2-2.5,6.6-6.2C196.1,42.7,195.9,41.3,195.8,40z M115.7,40c0.1-3.1,0.3-6.3,0.2-9.4c-0.2-4.5-3-7.5-6.9-7.6
		c-3.9,0-6.8,3-6.9,7.5c-0.1,3.1,0.1,6.3,0.1,9.4c-0.1,1.2-0.2,2.3-0.1,3.5c0.3,4,2.9,6.6,6.7,6.7c4,0.1,6.8-2.4,7.2-6.7
		C116,42.4,115.8,41.2,115.7,40z M235.9,40c0.1-3.1,0.2-6.3,0.1-9.4c-0.1-4.5-3-7.6-6.8-7.5c-3.9,0-6.8,3-7,7.5
		c-0.1,3.5,0.1,6.9,0.2,10.4c-0.1,1-0.3,2-0.2,2.9c0.6,4.1,3.5,6.5,7.4,6.3c3.7-0.2,6.1-2.7,6.4-6.7C236.1,42.3,235.9,41.2,235.9,40
		z M142.2,40c0,1.3-0.3,2.7-0.1,4c0.4,3.7,3.1,6.1,6.6,6.2c3.8,0.1,6.7-2.3,7.1-6.2c0.2-1.3-0.1-2.6-0.1-4c0.1-3.2-0.1-6.3,0.2-9.5
		c0.3-3.8-3.4-7.6-7-7.6c-3.6,0-7.3,3.9-7,7.6C142.3,33.7,142.2,36.9,142.2,40z M75.6,41c0.1-3.8,0.4-7.6,0.1-11.4
		c-0.3-4.1-3.6-6.8-7.4-6.5c-3.5,0.2-6.2,3.1-6.3,7c-0.1,3.3,0.1,6.6,0.1,9.9c0,1.5-0.3,3-0.1,4.4c0.8,5,6.3,7.5,10.5,4.7
		C75.5,47.2,76.4,44.3,75.6,41z"/>
	<path class="st1" d="M63.6,92.2c0.4,2.7,1.8,4.2,4.7,4c1.3-0.1,2.7,0,4,0c61.2,0,122.5,0,183.7,0c6.4,0,5.6-1,5.7,6
		c0,1-0.2,2-0.3,3c-1.8,0-3.7-0.1-5.5-0.1c-68.6,0-137.3,0-205.9,0c-7,0-6-0.9-6,6.1c0,40.7,0,81.3-0.1,122c0,4.3,0.7,8.2,3.1,11.7
		c-7.2,0.2-10.7-2.9-10.7-9.9c-0.1-9.7,0-19.3,0-29c0-34.5,0-69,0-103.5c0-1,0-2,0-3c0.1-3.2,0.1-3.3,3.3-3.3
		c3.8-0.1,7.7-0.1,11.5,0c3,0.1,4.8-0.9,5.3-4C58.8,92.2,61.2,92.2,63.6,92.2z"/>
	<path class="st2" d="M165,170.7c-0.1,8.7-7.2,15.9-15.9,16c-8.8,0.1-16.2-7.3-16.1-16.2c0-8.7,7.1-15.8,15.9-15.9
		C157.8,154.5,165.1,161.8,165,170.7z M157.4,170.5c-0.1-4.8-3.9-8.5-8.6-8.5c-4.7,0.1-8.3,4-8.2,8.9c0.1,4.6,3.7,8.1,8.3,8.1
		C153.8,179.1,157.4,175.4,157.4,170.5z"/>
	<path class="st3" d="M126.1,131.1c0,9-7.1,16.1-16.2,16c-8.7-0.1-15.8-7.2-15.9-15.9c0-8.9,7.4-16.2,16.3-16.1
		C119,115.2,126.1,122.3,126.1,131.1z M118.7,130.9c-0.1-4.6-4.2-8.3-9-8.1c-4.9,0.2-8.2,3.9-8,8.9c0.2,4.5,4,8.1,8.5,8.1
		C114.7,139.7,118.8,135.4,118.7,130.9z"/>
	<path class="st3" d="M188.1,147.1c-9.1,0.1-16.2-7-16.2-16c0-8.8,7.1-15.9,15.8-16c8.9-0.1,16.3,7.3,16.2,16.1
		C203.9,139.9,196.8,147,188.1,147.1z M188,122.8c-4.7,0-8.7,3.9-8.6,8.4c0.1,4.3,3.9,8.4,8.2,8.5c4.6,0.2,8.6-3.7,8.7-8.4
		C196.4,126.4,192.9,122.8,188,122.8z"/>
	<path class="st2" d="M87.2,130.9c0.1,9.1-6.9,16.2-15.9,16.2c-8.8,0-15.9-7-16.1-15.7c-0.2-8.8,7.3-16.3,16.1-16.3
		C79.9,115.1,87.1,122.1,87.2,130.9z M71.2,122.8c-4.9,0-8.4,3.6-8.3,8.6c0.1,4.5,3.8,8.2,8.3,8.4c4.4,0.1,8.7-4,8.7-8.5
		C79.9,126.5,76,122.7,71.2,122.8z"/>
	<path class="st2" d="M71.3,226.1c-9,0-16.3-7.2-16.2-16.1c0.1-8.6,7.3-15.9,16-15.9c8.7-0.1,15.9,7,16.1,15.7
		C87.3,218.9,80.4,226,71.3,226.1z M71.5,218.7c4.5-0.2,8.5-4.5,8.3-9c-0.2-4.7-4.2-8.2-9.1-8c-4.7,0.2-8,3.8-7.9,8.5
		C62.9,215,66.9,218.9,71.5,218.7z"/>
	<path class="st4" d="M226.9,147.1c-9.1,0-16.1-7-16-16.1c0.1-8.7,7.2-15.9,15.9-15.9c8.8,0,16.3,7.4,16.2,16.2
		C242.8,140,235.6,147.1,226.9,147.1z M226.9,122.8c-4.9,0-8.8,3.6-8.8,8.3c0,4.5,4.2,8.8,8.6,8.7c4.4-0.1,8.2-3.9,8.3-8.3
		C235.3,126.5,231.8,122.9,226.9,122.8z"/>
	<path class="st3" d="M187.8,226.1c-9,0-16-7.2-15.9-16.3c0.1-8.7,7.4-15.8,16.1-15.7c8.7,0.1,15.9,7.2,15.9,15.9
		C204,218.9,196.8,226.1,187.8,226.1z M188,201.8c-4.7,0-8.7,3.8-8.7,8.4c0,4.2,4,8.3,8.2,8.5c4.6,0.2,8.6-3.6,8.7-8.4
		C196.4,205.4,192.9,201.8,188,201.8z"/>
	<path class="st2" d="M126.1,170.5c0,9-7.2,16.3-16.1,16.2c-8.6-0.1-15.9-7.4-15.9-16c-0.1-8.9,7.3-16.2,16.2-16.1
		C119.1,154.7,126,161.7,126.1,170.5z M118.7,170.8c0.1-4.5-4-8.7-8.5-8.7c-4.6,0-8.2,3.5-8.4,8.1c-0.2,4.9,3.3,8.7,8.1,8.9
		C114.6,179.2,118.6,175.4,118.7,170.8z"/>
	<path class="st4" d="M210.8,170.4c0.1-8.9,7-15.7,15.9-15.7c9,0,16.3,7.3,16.1,16.2c-0.2,8.6-7.5,15.9-16.1,15.9
		C217.9,186.7,210.8,179.4,210.8,170.4z M235.1,170.5c-0.1-4.8-3.9-8.5-8.7-8.4c-4.3,0.1-8.3,4.1-8.3,8.4c0,4.5,4,8.5,8.7,8.5
		C231.7,179.1,235.2,175.4,235.1,170.5z"/>
	<path class="st2" d="M110.2,226.1c-9,0.1-16.3-7.1-16.2-16.1c0.1-8.7,7.2-15.9,15.9-16c8.9-0.1,16.2,7.2,16.1,16.2
		C126,219,119,226,110.2,226.1z M118.7,210c-0.1-4.7-4.1-8.4-8.8-8.3c-4.9,0.1-8.3,3.8-8.1,8.8c0.2,4.6,3.9,8.2,8.4,8.2
		C114.6,218.7,118.8,214.4,118.7,210z"/>
	<path class="st3" d="M149.1,147.1c-8.8,0-16-6.9-16.1-15.6c-0.1-9,7-16.4,15.9-16.4c8.9-0.1,16.2,7.3,16.1,16.2
		C165,140,157.9,147.1,149.1,147.1z M148.9,122.8c-4.7,0-8.7,4-8.5,8.6c0.2,4.4,4,8.3,8.4,8.4c4.5,0.1,8.6-4,8.7-8.5
		C157.6,126.6,153.7,122.7,148.9,122.8z"/>
	<path class="st3" d="M165,210c0.1,8.8-6.9,16-15.6,16.1c-9.1,0.2-16.4-6.9-16.4-15.8c-0.1-9,7.2-16.3,16.1-16.2
		C157.8,194.1,164.9,201.2,165,210z M148.9,201.8c-4.7,0-8.7,4-8.5,8.6c0.2,4.4,4,8.3,8.4,8.4c4.5,0.1,8.7-3.9,8.8-8.5
		C157.7,205.6,153.7,201.7,148.9,201.8z"/>
	<path class="st2" d="M87.2,170.7c0,9-7.4,16.3-16.2,16.1c-8.6-0.2-15.8-7.6-15.8-16.1c0-8.8,7.4-16,16.4-15.9
		C80.4,154.8,87.2,161.8,87.2,170.7z M79.8,170.5c-0.1-4.6-4.2-8.6-8.8-8.5c-4.8,0.1-8.3,4-8.2,8.9c0.2,4.9,4,8.3,8.8,8.1
		C76.1,178.8,79.9,174.9,79.8,170.5z"/>
	<path class="st2" d="M171.9,170.9c-0.1-9.1,6.9-16.2,16-16.2c8.8,0,15.9,7,16,15.7c0.1,8.8-7.3,16.4-16.1,16.3
		C179.2,186.7,172,179.6,171.9,170.9z M196.3,170.7c0.1-4.9-3.6-8.6-8.4-8.7c-4.6,0-8.7,4.1-8.6,8.6c0.1,4.4,3.8,8.2,8.3,8.3
		C192.5,179.2,196.2,175.6,196.3,170.7z"/>
	<path class="st5" d="M63.6,92.2c-2.4,0-4.9,0-7.3,0c-0.7-2.5-2.3-3.4-4.8-3.3c-3.5,0.1-7-0.1-10.5-0.2c-0.8-2-1.1-4.1-1.1-6.3
		c0.1-10.8,0-21.6,0-32.5c0-3.1-0.2-6.3,1.1-9.3c1.9-0.7,4-0.3,5.9-0.4c6.5-0.1,6.5,0,7.9,6.2c1.5,6.9,8.1,12,14.9,11.4
		c7.1-0.5,12.7-6.1,13.3-13.2c0.4-4.3,0.4-4.3,4.5-4.4c0.3,0,0.7,0,1,0c5.3,0,5.3,0,6.3,5.4c1.2,7.2,7.6,12.6,14.7,12.2
		c7.2-0.4,13-6.1,13.6-13.5c0.3-4.1,0.3-4.1,4.2-4.1c0.7,0,1.3,0,2,0c4.9,0,4.9,0,5.5,5c0.8,7.1,7.2,12.8,14.3,12.6
		c7-0.1,13.2-5.7,13.9-12.6c0.1-0.8,0.1-1.7,0.1-2.5c-0.1-1.9,0.9-2.7,2.8-2.6c0.5,0,1,0,1.5,0c2.1,0.1,4.6-0.7,6.4,0.4
		c1.9,1.2,0.7,3.7,1.1,5.6c1.2,6.3,7.3,11.5,13.9,11.6c6.5,0.1,12.9-4.9,14.2-11.1c0.4-2.1-0.2-4.8,1.5-6c1.8-1.3,4.5-0.5,6.8-0.4
		c3.3,0,3.3,0.1,3.6,3.8c0.5,7,4.6,11.8,11.3,13.4c5.5,1.4,11.7-1.3,15.1-6.4c1.7-2.6,2.2-5.5,2.4-8.5c0.1-1.7,0.7-2.4,2.4-2.3
		c5.5,0,11-0.2,16.5,0.1c4.9,0.2,6.7,2.3,6.7,7.4c0.1,11.3,0.1,22.7,0,34c0,5.1-2.2,7-7.4,7.2c-1.2,0-2.3,0-3.5,0
		c-62.1,0-124.3,0-186.4,0c-1.2,0-2.3,0.1-3.5,0C66,88.7,64.3,89.7,63.6,92.2z"/>
	<path class="st6" d="M41.1,40.6c-1.3,3-1.1,6.1-1.1,9.3c0,10.8,0.1,21.6,0,32.5c0,2.2,0.3,4.3,1.1,6.3c-1.5,0.1-3,0.1-4.4,0.3
		c-5.6,0.8-8.7-3.6-8.4-8.5c0.2-3.5,0-7,0-10.4c0-7,0-13.9,0-20.9c0-6.7,2.3-9,8.9-8.9C38.5,40.2,39.8,40,41.1,40.6z"/>
	<path class="st7" d="M62.1,40c0-3.3-0.2-6.6-0.1-9.9c0.1-3.9,2.9-6.8,6.3-7c3.7-0.3,7.1,2.4,7.4,6.5c0.3,3.8,0,7.6-0.1,11.4
		c-1,0-1.9,0.4-2.9,0.6C69.1,42.2,65.3,43,62.1,40z"/>
	<path class="st7" d="M142.2,40c-0.1-3.2,0.1-6.3-0.2-9.5c-0.3-3.7,3.4-7.6,7-7.6c3.6,0,7.3,3.8,7,7.6c-0.3,3.1-0.2,6.3-0.2,9.5
		C151.3,42.9,146.7,42.9,142.2,40z"/>
	<path class="st7" d="M222.4,41c-0.1-3.5-0.3-7-0.2-10.4c0.2-4.5,3-7.5,7-7.5c3.9,0,6.7,3,6.8,7.5c0.1,3.1-0.1,6.3-0.1,9.4
		c-3.3,2.2-6.9,2.6-10.7,1.5C224.2,41.3,223.3,41,222.4,41z"/>
	<path class="st7" d="M102.2,40c0-3.1-0.2-6.3-0.1-9.4c0.1-4.5,3-7.6,6.9-7.5c3.9,0,6.8,3,6.9,7.6c0.1,3.1-0.1,6.3-0.2,9.4
		C111.2,43,106.7,42.8,102.2,40z"/>
	<path class="st7" d="M182.3,40c-0.1-3.1-0.3-6.3-0.2-9.4c0.2-4.5,3-7.5,6.9-7.5c3.9,0,6.8,3,6.9,7.5c0.1,3.1-0.1,6.3-0.1,9.4
		C191.3,42.8,186.8,43,182.3,40z"/>
	<path class="st8" d="M102.2,40c4.5,2.8,9,3,13.5,0c0.1,1.2,0.3,2.3,0.2,3.5c-0.4,4.2-3.2,6.8-7.2,6.7c-3.7-0.1-6.3-2.7-6.7-6.7
		C101.9,42.3,102.1,41.2,102.2,40z"/>
	<path class="st8" d="M142.2,40c4.5,2.9,9,2.9,13.6,0c0,1.3,0.3,2.7,0.1,4c-0.5,3.9-3.3,6.3-7.1,6.2c-3.6-0.1-6.2-2.5-6.6-6.2
		C142,42.7,142.2,41.3,142.2,40z"/>
	<path class="st8" d="M182.3,40c4.5,2.9,9,2.8,13.5,0c0,1.3,0.3,2.7,0.1,4c-0.4,3.7-3,6.1-6.6,6.2c-3.6,0.1-6.5-2.1-7.1-5.7
		C182,43,182.3,41.5,182.3,40z"/>
	<path class="st8" d="M222.4,41c1,0,1.9,0.3,2.8,0.6c3.7,1.1,7.4,0.7,10.7-1.5c0.1,1.1,0.2,2.3,0.1,3.4c-0.3,4-2.7,6.5-6.4,6.7
		c-3.9,0.2-6.8-2.2-7.4-6.3C222.1,42.9,222.3,41.9,222.4,41z"/>
	<path class="st8" d="M62.1,40c3.2,3,7,2.2,10.6,1.5c0.9-0.2,1.9-0.5,2.9-0.6c0.7,3.4-0.2,6.2-3.1,8.1c-4.2,2.8-9.7,0.3-10.5-4.7
		C61.9,43,62.1,41.5,62.1,40z"/>
	<path class="st9" d="M157.4,170.5c0.1,4.9-3.6,8.6-8.4,8.5c-4.6,0-8.2-3.5-8.3-8.1c-0.1-4.9,3.5-8.8,8.2-8.9
		C153.5,162,157.3,165.7,157.4,170.5z"/>
	<path class="st9" d="M118.7,130.9c0.1,4.5-4,8.8-8.4,8.8c-4.5,0.1-8.3-3.5-8.5-8.1c-0.2-5,3.1-8.7,8-8.9
		C114.5,122.6,118.5,126.3,118.7,130.9z"/>
	<path class="st9" d="M188,122.8c4.9,0,8.4,3.6,8.3,8.6c-0.1,4.7-4.2,8.6-8.7,8.4c-4.3-0.2-8.1-4.2-8.2-8.5
		C179.2,126.6,183.2,122.7,188,122.8z"/>
	<path class="st9" d="M71.2,122.8c4.8,0,8.7,3.7,8.7,8.4c0,4.5-4.3,8.7-8.7,8.5c-4.5-0.1-8.2-3.9-8.3-8.4
		C62.7,126.4,66.2,122.8,71.2,122.8z"/>
	<path class="st9" d="M71.5,218.7c-4.6,0.2-8.6-3.8-8.7-8.5c-0.1-4.7,3.3-8.3,7.9-8.5c4.9-0.2,8.8,3.3,9.1,8
		C80,214.2,76,218.6,71.5,218.7z"/>
	<path class="st10" d="M226.9,122.8c4.9,0,8.3,3.7,8.2,8.6c-0.1,4.4-3.9,8.2-8.3,8.3c-4.4,0.1-8.6-4.2-8.6-8.7
		C218.2,126.4,222,122.8,226.9,122.8z"/>
	<path class="st9" d="M188,201.8c4.9,0,8.4,3.7,8.3,8.6c-0.1,4.7-4.1,8.6-8.7,8.4c-4.3-0.2-8.2-4.3-8.2-8.5
		C179.3,205.6,183.2,201.7,188,201.8z"/>
	<path class="st9" d="M118.7,170.8c-0.1,4.6-4.2,8.4-8.9,8.3c-4.8-0.1-8.3-3.9-8.1-8.9c0.2-4.6,3.8-8.1,8.4-8.1
		C114.8,162.1,118.8,166.2,118.7,170.8z"/>
	<path class="st10" d="M235.1,170.5c0.1,5-3.5,8.6-8.3,8.6c-4.7,0-8.7-4-8.7-8.5c0-4.3,4-8.3,8.3-8.4
		C231.3,161.9,235.1,165.6,235.1,170.5z"/>
	<path class="st9" d="M118.7,210c0.1,4.4-4.1,8.7-8.6,8.7c-4.5,0-8.2-3.6-8.4-8.2c-0.2-5,3.2-8.7,8.1-8.8
		C114.6,201.7,118.6,205.4,118.7,210z"/>
	<path class="st11" d="M148.9,122.8c4.8,0,8.7,3.8,8.6,8.4c-0.1,4.6-4.2,8.7-8.7,8.5c-4.3-0.1-8.2-4-8.4-8.4
		C140.3,126.8,144.2,122.8,148.9,122.8z"/>
	<path class="st11" d="M148.9,201.8c4.8,0,8.7,3.9,8.6,8.5c-0.1,4.6-4.3,8.6-8.8,8.5c-4.4-0.1-8.2-4-8.4-8.4
		C140.3,205.8,144.2,201.8,148.9,201.8z"/>
	<path class="st9" d="M79.8,170.5c0.1,4.3-3.7,8.3-8.1,8.5c-4.9,0.2-8.7-3.2-8.8-8.1c-0.2-4.9,3.4-8.7,8.2-8.9
		C75.6,161.9,79.7,165.9,79.8,170.5z"/>
	<path class="st9" d="M196.3,170.7c-0.1,4.9-3.8,8.5-8.7,8.3c-4.5-0.1-8.2-3.9-8.3-8.3c-0.1-4.6,4-8.7,8.6-8.6
		C192.7,162.1,196.3,165.9,196.3,170.7z"/>
</g>
</svg>
