<?xml version="1.0" encoding="utf-8"?>
<!-- Generator: Adobe Illustrator 23.1.0, SVG Export Plug-In . SVG Version: 6.00 Build 0)  -->
<svg version="1.1" id="Layer_1" xmlns="http://www.w3.org/2000/svg" xmlns:xlink="http://www.w3.org/1999/xlink" x="0px" y="0px"
	 viewBox="0 0 370 238" style="enable-background:new 0 0 370 238;" xml:space="preserve">
<style type="text/css">
	.st0{fill-rule:evenodd;clip-rule:evenodd;fill:#D9EEEF;}
	.st1{fill-rule:evenodd;clip-rule:evenodd;fill:#F7CF83;}
	.st2{fill-rule:evenodd;clip-rule:evenodd;fill:#EC9167;}
	
		.st3{fill-rule:evenodd;clip-rule:evenodd;fill:none;stroke:#232020;stroke-width:2;stroke-linecap:round;stroke-linejoin:round;stroke-miterlimit:10;}
	.st4{fill-rule:evenodd;clip-rule:evenodd;fill:#421954;}
	.st5{fill-rule:evenodd;clip-rule:evenodd;fill:#786081;}
	.st6{fill-rule:evenodd;clip-rule:evenodd;fill:#A688AB;}
	
		.st7{fill-rule:evenodd;clip-rule:evenodd;fill:#FFFFFF;stroke:#232020;stroke-width:2;stroke-linecap:round;stroke-linejoin:round;stroke-miterlimit:10;}
	.st8{fill-rule:evenodd;clip-rule:evenodd;fill:#FFFFFF;}
	.st9{fill-rule:evenodd;clip-rule:evenodd;fill:#D6E5ED;}
	.st10{fill-rule:evenodd;clip-rule:evenodd;fill:#4F3030;}
	.st11{fill-rule:evenodd;clip-rule:evenodd;fill:#3C212A;}
	.st12{fill-rule:evenodd;clip-rule:evenodd;fill:#715149;}
	
		.st13{fill-rule:evenodd;clip-rule:evenodd;fill:#232020;stroke:#232020;stroke-width:2;stroke-linecap:round;stroke-linejoin:round;stroke-miterlimit:10;}
	
		.st14{fill-rule:evenodd;clip-rule:evenodd;stroke:#000000;stroke-width:2;stroke-linecap:round;stroke-linejoin:round;stroke-miterlimit:10;}
	
		.st15{fill-rule:evenodd;clip-rule:evenodd;fill:#E3B98E;stroke:#232020;stroke-width:2;stroke-linecap:round;stroke-linejoin:round;stroke-miterlimit:10;}
	
		.st16{fill-rule:evenodd;clip-rule:evenodd;fill:#4F3030;stroke:#232020;stroke-width:2;stroke-linecap:round;stroke-linejoin:round;stroke-miterlimit:10;}
	.st17{fill-rule:evenodd;clip-rule:evenodd;fill:#FADFB0;}
	.st18{fill-rule:evenodd;clip-rule:evenodd;fill:#E3B98E;}
	
		.st19{fill-rule:evenodd;clip-rule:evenodd;fill:#23111A;stroke:#232020;stroke-width:2;stroke-linecap:round;stroke-linejoin:round;stroke-miterlimit:10;}
	.st20{fill-rule:evenodd;clip-rule:evenodd;fill:none;}
	.st21{fill:none;}
	.st22{fill-rule:evenodd;clip-rule:evenodd;fill:#FFFBEC;}
	.st23{fill-rule:evenodd;clip-rule:evenodd;fill:#F0E4C0;}
	.st24{fill:#EC9167;}
	.st25{fill:#E77B5D;}
	
		.st26{fill-rule:evenodd;clip-rule:evenodd;fill:#FFFBEC;stroke:#232020;stroke-width:2;stroke-linecap:round;stroke-linejoin:round;stroke-miterlimit:10;}
	.st27{fill-rule:evenodd;clip-rule:evenodd;fill:#E77B5D;}
	
		.st28{fill-rule:evenodd;clip-rule:evenodd;fill:#DF2B6D;stroke:#232020;stroke-linecap:round;stroke-linejoin:round;stroke-miterlimit:10;}
	.st29{fill-rule:evenodd;clip-rule:evenodd;stroke:#232020;stroke-linecap:round;stroke-linejoin:round;stroke-miterlimit:10;}
	.st30{fill:none;stroke:#232020;stroke-linecap:round;stroke-linejoin:round;stroke-miterlimit:10;}
	
		.st31{fill-rule:evenodd;clip-rule:evenodd;fill:none;stroke:#232020;stroke-linecap:round;stroke-linejoin:round;stroke-miterlimit:10;}
</style>
<g id="XMLID_455_">
	<ellipse id="XMLID_513_" class="st0" cx="176.7" cy="188.2" rx="165.4" ry="31"/>
	<g id="XMLID_475_">
		<g id="XMLID_517_">
			<g id="XMLID_515_">
				<path id="XMLID_70_" class="st1" d="M115.8,54.3c0,0-57.5,0.9-68.6,5.1c-11.1,4.2-10.5-1-21.6-2.3c-11.1-1.4-12.6,6.6-5,13.7
					c7.6,7-5.5,58.7,35.3,88.3c0,0,8.2,2.9,8.6,10.6c0.4,7.7,1.5,4,13.6,0.5c12.1-3.5,17.1-0.7,27.7-0.4c10.6,0.2,34-1.1,43.6-6.7
					C159,157.3,119.7,55.7,115.8,54.3L115.8,54.3z"/>
				<path id="XMLID_519_" class="st2" d="M118.2,147.1c10.9-6,20.3-9.7,28.3-11.8c4,14.6,5.8,25.8,2.8,27.6c-9.6,5.6-33,7-43.6,6.7
					c-10.6-0.2-15.6-3.1-27.7,0.4c-12.1,3.5-13.3,7.2-13.6-0.5c-0.4-7.7-8.6-10.6-8.6-10.6c-30-21.7-30.8-55.4-32.2-74.5
					C33.7,107.6,70.2,173.7,118.2,147.1z"/>
			</g>
			<path id="XMLID_516_" class="st3" d="M115.8,54.3c0,0-57.5,0.9-68.6,5.1c-11.1,4.2-10.5-1-21.6-2.3c-11.1-1.4-12.6,6.6-5,13.7
				c7.6,7-5.5,58.7,35.3,88.3c0,0,8.2,2.9,8.6,10.6c0.4,7.7,1.5,4,13.6,0.5c12.1-3.5,17.1-0.7,27.7-0.4c10.6,0.2,34-1.1,43.6-6.7
				C159,157.3,119.7,55.7,115.8,54.3L115.8,54.3z"/>
		</g>
		<path id="XMLID_69_" class="st4" d="M155.7,102.2c0,0,4.9-62-10-75.1c-15-13.1-22-3.2-26.3,2.8C115.2,36,140.7,94.7,155.7,102.2
			L155.7,102.2z"/>
		<g id="XMLID_507_">
			<g id="XMLID_505_">
				<path id="XMLID_67_" class="st5" d="M84.9,90c0,0,14,50.5,37.1,70.5c23.1,19.9,42.9,24.1,56.5,19.3
					c32.9-11.4,47.9-51.2,17.5-54.7c-30.4-3.5-36.5-17.7-42.3-26.8c-8-12.7-6.8-18.8-15.1-22.2C130.3,72.8,85.1,84.7,84.9,90
					L84.9,90z"/>
				<g id="XMLID_504_">
					<path id="XMLID_482_" class="st6" d="M106.2,140.5c-2.2-3.6-4.2-7.4-6.1-11.2c14.6-28.3,40.4-31.5,53.6-31.1c0,0,0,0,0,0
						c1.9,3,3.8,6.5,6.6,10.1C131.3,102.5,113.9,126.1,106.2,140.5z"/>
					<path id="XMLID_474_" class="st4" d="M97.9,124.7c12.2,14.7,40.5,43.9,64.3,32c19.5-9.8,13.1,9.2,5.5,24.9
						c-12.5,0.1-28.1-6-45.6-21.1C112.2,152,104,138,97.9,124.7z"/>
				</g>
			</g>
			<path id="XMLID_506_" class="st3" d="M84.9,90c0,0,14,50.5,37.1,70.5c23.1,19.9,42.9,24.1,56.5,19.3
				c32.9-11.4,47.9-51.2,17.5-54.7c-30.4-3.5-36.5-17.7-42.3-26.8c-8-12.7-6.8-18.8-15.1-22.2C130.3,72.8,85.1,84.7,84.9,90L84.9,90
				z"/>
		</g>
		<g id="XMLID_473_">
			<path id="XMLID_469_" class="st6" d="M114.4,85.6c0.3,3.8,12.4,10.1,20.5,9.1c7.4-1,6.2-6,5.6-8.4c-1-4-9.6-9.3-17.1-9.3
				C115.9,77,113.9,78.9,114.4,85.6z"/>
			<g id="XMLID_508_">
				<path id="XMLID_68_" class="st7" d="M140.8,61.5c0,0,9.8-3.6,9.9,4c0,7.6-9.5,6.4-12.5,3.7"/>
				<g id="XMLID_502_">
					<g id="XMLID_493_">
						<path id="XMLID_66_" class="st8" d="M130.8,29.6c7.8,4.5,18.8,29,11.6,39.6c-7.2,10.5-5.7,11.3-4.5,18.3
							c0.6,3.5-3.6,4.9-8.8,4c-2.4-0.4-12.3-4.6-12.6-7.3c-0.8-6.6-2.7-7-9.9-10.7c-7.2-3.7-13.1-11.1-14.7-23.9
							C89.7,31.5,107.7,16.5,130.8,29.6L130.8,29.6z"/>
						<g id="XMLID_448_">
							<path id="XMLID_471_" class="st9" d="M130.8,29.6c3.5,2,7.6,7.9,10.4,14.8c-4.1,2.2-10.6-1.8-10.6-1.8
								c-2.7,4.1-10.6,1.3-10.6,1.3c-3.2,2.5-7.5,1.6-7.5,1.6c-1.7,10.6-8.6,17.2-8.6,17.2l-6.6,2.4c-2.6-3.9-4.6-9-5.4-15.5
								C89.7,31.5,107.7,16.5,130.8,29.6z"/>
							<path id="XMLID_470_" class="st9" d="M125.4,79c7,1.9,10.8-0.5,12.4-2c-1.6,3.7-0.8,5.7,0,9.9C126,91.7,125.4,79,125.4,79z"
								/>
						</g>
					</g>
					<path id="XMLID_501_" class="st3" d="M130.8,29.6c7.8,4.5,18.8,29,11.6,39.6c-7.2,10.5-5.7,11.3-4.5,18.3
						c0.6,3.5-3.6,4.9-8.8,4c-2.4-0.4-12.3-4.6-12.6-7.3c-0.8-6.6-2.7-7-9.9-10.7c-7.2-3.7-13.1-11.1-14.7-23.9
						C89.7,31.5,107.7,16.5,130.8,29.6L130.8,29.6z"/>
				</g>
				<g id="XMLID_447_">
					<g id="XMLID_446_">
						<path id="XMLID_61_" class="st10" d="M105.1,63.2c0,0,5.3-13.6,4.5-21.3c0,0,6.2,2.5,9.9-0.5c0,0,8.8,1.5,11.1-1
							c0,0,12.4,5.6,12.5-1.9c0,0,8.5-3.5,2.2-6.9c0,0,2.3-10.7-9.1-10.4c0,0-5-7.9-13.2-3.1c0,0-8.1-6.7-12.9-0.4
							c0,0-13.9-3.4-15.8,7.2c0,0-10.7,1.5-6.4,9.9c0,0-9.8,5.1-1.4,12c0,0-3,7.8,5.2,10.1C91.7,56.9,92,67.6,105.1,63.2L105.1,63.2
							z"/>
						<path id="XMLID_465_" class="st11" d="M108.6,51.9c-1.3,5.9-3.4,11.3-3.4,11.3v0c-13.1,4.4-13.5-6.3-13.5-6.3
							c-8.2-2.3-5.2-10.1-5.2-10.1c-7.1-5.9-1.2-10.4,0.8-11.6C90.9,41.4,97.2,47.9,108.6,51.9z"/>
						<path id="XMLID_467_" class="st12" d="M95.6,21.6c3.9-6.4,14.5-3.8,14.5-3.8c4.8-6.3,12.9,0.4,12.9,0.4
							c8.2-4.7,13.2,3.1,13.2,3.1c11.5-0.3,9.1,10.4,9.1,10.4c4.1,2.3,2,4.5,0,5.8c0.5-3.7-2.6-6.3-2.6-6.3c1.1-6.8-7.8-7.7-7.8-7.7
							c-3.8-7.3-13.1-2.4-13.1-2.4c-5.4-7-11.8,0.5-11.8,0.5C105.3,17.8,98.6,20.2,95.6,21.6z"/>
					</g>
					<path id="XMLID_503_" class="st3" d="M105.1,63.2c0,0,5.3-13.6,4.5-21.3c0,0,6.2,2.5,9.9-0.5c0,0,8.8,1.5,11.1-1
						c0,0,12.4,5.6,12.5-1.9c0,0,8.5-3.5,2.2-6.9c0,0,2.3-10.7-9.1-10.4c0,0-5-7.9-13.2-3.1c0,0-8.1-6.7-12.9-0.4
						c0,0-13.9-3.4-15.8,7.2c0,0-10.7,1.5-6.4,9.9c0,0-9.8,5.1-1.4,12c0,0-3,7.8,5.2,10.1C91.7,56.9,92,67.6,105.1,63.2L105.1,63.2z
						"/>
				</g>
				<path id="XMLID_60_" class="st7" d="M104.6,63.2c0,0-9.8-3.6-9.9,4c0,7.6,9.5,6.4,12.5,3.7"/>
			</g>
			<g id="XMLID_65_">
				<path id="XMLID_64_" class="st13" d="M138.9,53.4c-0.3,0-0.5,0.6-0.4,1.3c0.1,0.7,0.4,1.2,0.7,1.2c0.3,0,0.5-0.6,0.4-1.3
					C139.6,53.9,139.2,53.4,138.9,53.4L138.9,53.4z"/>
				<path id="XMLID_163_" class="st13" d="M126.6,53.4c-0.3,0-0.5,0.6-0.4,1.3c0.1,0.7,0.4,1.2,0.7,1.2c0.3,0,0.5-0.6,0.4-1.3
					C127.3,53.9,126.9,53.4,126.6,53.4L126.6,53.4z"/>
				<path id="XMLID_63_" class="st3" d="M133.7,52.8c0,0,2.1,4.6,0.8,7"/>
				<path id="XMLID_62_" class="st14" d="M135.5,65.5c0,0-8.5-2.8-10.2-2.8c0,0-1.5,5.3,2.2,6.8C131.2,71,134.6,68.9,135.5,65.5
					L135.5,65.5z"/>
				<path id="XMLID_164_" class="st3" d="M126.8,46.3c0,0-3.5-0.7-5,0.8"/>
				<path id="XMLID_166_" class="st3" d="M136.3,46.9c0,0,2.7-0.4,4.2,1.1"/>
			</g>
		</g>
		<g id="XMLID_511_">
			<g id="XMLID_468_">
				<path id="XMLID_59_" class="st5" d="M94.6,116.8c-15.7-29.9-14-28.5-24.8-40.2C58.9,64.9,41.5,46.1,54.5,35.8
					C69.2,24,84,46.3,88.4,52c4.4,5.6,23.6,30.1,26,33.7"/>
				<path id="XMLID_476_" class="st4" d="M54.5,35.8c0.2-0.1,0.3-0.2,0.5-0.4c1.8,15.1,3.2,21.2,14.8,41.2
					C59.6,65.1,43.4,44.6,54.5,35.8z"/>
				<path id="XMLID_477_" class="st6" d="M88.4,52c2.1,2.7,7.6,9.7,13,16.7c-8.3-8.7-20-22.2-25-26.8c-5.5-5-10.2-6.5-17.9-8.5
					C71.2,29.8,84.6,47,88.4,52z"/>
			</g>
			<path id="XMLID_509_" class="st3" d="M94.6,116.8c-15.7-29.9-14-28.5-24.8-40.2C58.9,64.9,41.5,46.1,54.5,35.8
				C69.2,24,84,46.3,88.4,52c4.4,5.6,23.6,30.1,26,33.7"/>
		</g>
		<g id="XMLID_500_">
			<path id="XMLID_58_" class="st15" d="M137.3,172c0,0,40.8-49.4,46.8-48.8c6,0.6,9.3-3.7,17.5-14.8c8.2-11.1,19-44.1,41.6-41
				c22.6,3.2,17.6,21.3,6.4,41C238.6,128,203,203.9,137.3,172L137.3,172z"/>
			<g id="XMLID_499_">
				<g id="XMLID_488_">
					<path id="XMLID_71_" class="st16" d="M268.4,190.3c0,0-3.9,14.2,0.1,18.1c3.9,3.9,23.8-1.8,27.7-3.1
						c8.7-2.8,35.1-15.7,31.9-23.7c-3.3-8-28.8-3.8-36.4-1.5C283.2,182.7,268.4,190.3,268.4,190.3L268.4,190.3z"/>
					<g id="XMLID_426_">
						<path id="XMLID_56_" class="st7" d="M309.8,185.7l-0.4,0.2c-0.8,0.4-1.9,0-2.5-0.9l-5.1-6.6c-0.6-0.8-0.6-1.8,0.2-2.2l0.4-0.2
							c0.8-0.4,1.9,0,2.5,0.9l5.1,6.6C310.7,184.4,310.6,185.4,309.8,185.7z"/>
						<path id="XMLID_435_" class="st7" d="M314.7,184.5l-0.4,0.2c-0.8,0.4-1.9,0-2.1-0.3l-5.1-6.6c-1.1-1.4-1-2.4-0.3-2.7l0.4-0.2
							c0.8-0.4,1.9,0,2.5,0.9l5.1,6.6C315.5,183.2,315.4,184.2,314.7,184.5z"/>
						<path id="XMLID_445_" class="st7" d="M319.6,184.2l-0.4,0.2c-0.8,0.4-1.9,0-2.5-0.9l-5.1-6.6c-0.6-0.8-0.6-1.8,0.2-2.2
							l0.4-0.2c0.8-0.4,1.9,0,2.5,0.9l5.1,6.6C320.4,182.9,320.4,183.9,319.6,184.2z"/>
					</g>
				</g>
				<g id="XMLID_498_">
					<g id="XMLID_463_">
						<path id="XMLID_57_" class="st17" d="M140.5,173.4c11.2,6,28.1,16.6,64.5-0.3c39-18.2,41.2-28.1,45.4-20.7
							c4.2,7.4,14.6,38.3,17.1,41.5c2.5,3.1,31.7-9.6,35-16.4c3.3-6.8-26.1-82.6-48.5-77.4c-22.4,5.2-57.8,29.4-64.4,33.6"/>
						<path id="XMLID_443_" class="st18" d="M153.5,162.8c16.1,5.5,47.1,6,92.6-36c0,0,29.7,85.1,55.4,42.5c1,4.1,1.4,7.1,0.8,8.2
							c-3.3,6.8-32.5,19.6-35,16.4c-2.4-3.1-12.9-34-17.1-41.5c-4.2-7.4-6.4,2.5-45.4,20.7c-36.3,17-53.3,6.4-64.5,0.3L153.5,162.8z
							"/>
					</g>
					<path id="XMLID_489_" class="st3" d="M140.5,173.4c11.2,6,28.1,16.6,64.5-0.3c39-18.2,41.2-28.1,45.4-20.7
						c4.2,7.4,14.6,38.3,17.1,41.5c2.5,3.1,31.7-9.6,35-16.4c3.3-6.8-26.1-82.6-48.5-77.4c-22.4,5.2-57.8,29.4-64.4,33.6"/>
				</g>
			</g>
			<g id="XMLID_521_">
				<g id="XMLID_520_">
					<g id="XMLID_462_">
						<path id="XMLID_408_" class="st17" d="M214.4,90.3c0,0-10.3,40.8-9.8,43.9c0.5,3.1,30.8,4.7,33.5,3.2
							c2-1.1,18.7-30.9,20.7-50.7c0.6-6.1,1.6-10.2-3.3-14.3"/>
						<path id="XMLID_437_" class="st18" d="M204.6,134.2c-0.5-3.1,9.8-43.9,9.8-43.9l41-17.9c0.1,0.1,0.2,0.2,0.4,0.3
							c-12.9,5.7-57.3,28.7-32.2,65C214.6,137.2,204.9,135.9,204.6,134.2z"/>
					</g>
					<path id="XMLID_491_" class="st3" d="M214.1,91.7c0,0-10,39.4-9.5,42.5c0.5,3.1,30.8,4.7,33.5,3.2c2-1.1,18.7-30.9,20.7-50.7
						c0.6-6.1,1.6-10.2-3.3-14.3"/>
				</g>
				<g id="XMLID_487_">
					<path id="XMLID_55_" class="st16" d="M203.8,135.7c7.3-6.2,33.4-20.8,49.6-11.4c13.6,7.8,2.6,15.4-5.8,18.7
						c-4.4,1.8-39,11.1-44.3,7.6C197.9,147.2,200.5,138.4,203.8,135.7L203.8,135.7z"/>
					<path id="XMLID_490_" class="st19" d="M226.1,129.5c16.1-7.9,27.1-3.9,33.1,0.2c2.6,5.7-5.3,10.7-11.7,13.3
						c-4.4,1.8-39,11.1-44.3,7.6c-1.8-1.2-2.7-3-2.9-5C203.5,141.4,210.9,137,226.1,129.5z"/>
				</g>
			</g>
		</g>
		<g id="XMLID_444_">
			<g id="XMLID_442_">
				<path id="XMLID_52_" class="st20" d="M177.5,76.4c-13.7,1.6-7,28-11.6,40.5c-3.3,9.2,2.8,7.9,15.1,9.4
					c9.6,1.2,17.1,0.5,19.3-10.2C202.5,105.3,199.8,73.8,177.5,76.4L177.5,76.4z"/>
				<path id="XMLID_51_" class="st21" d="M177.5,76.4c-13.7,1.6-7,28-11.6,40.5c-3.3,9.2,2.8,7.9,15.1,9.4
					c9.6,1.2,17.1,0.5,19.3-10.2C202.5,105.3,199.8,73.8,177.5,76.4L177.5,76.4z"/>
				<g id="XMLID_440_">
					<path id="XMLID_54_" class="st22" d="M177.5,76.4c-13.7,1.6-7,28-11.6,40.5c-3.3,9.2,2.8,7.9,15.1,9.4
						c9.6,1.2,17.1,0.5,19.3-10.2C202.5,105.3,199.8,73.8,177.5,76.4L177.5,76.4z"/>
					<g id="XMLID_433_">
						<path id="XMLID_395_" class="st23" d="M165.9,116.9c0.1-0.3,0.2-0.6,0.3-0.9c31.1,6.7,29.2-20.4,27.9-32.5
							c7,9.4,7.7,25.4,6.2,32.5c-2.2,10.7-9.7,11.4-19.3,10.2C168.7,124.8,162.5,126.1,165.9,116.9z"/>
						<path id="XMLID_204_" class="st23" d="M177.5,76.4c5.8-0.7,10.3,1,13.8,4c-4.9,1.9-14.1,4.9-21.4,2.9
							C171.1,79.5,173.4,76.8,177.5,76.4L177.5,76.4z"/>
					</g>
					<g id="XMLID_411_">
						<path id="XMLID_193_" class="st24" d="M193.1,82.3c5.5,6.4,7.6,16.8,7.8,24.9c-2.8-1.5-5-4.1-4.6-6.4c0.7-4-0.7-6.4-4.1-12.2
							C190.6,85.9,191.6,83.8,193.1,82.3z"/>
						<path id="XMLID_396_" class="st25" d="M196.3,100.8c0.5-2.8-0.1-4.9-1.6-7.9c0-3.7-0.3-7.1-0.6-9.4c0.4,0.5,0.8,1.1,1.1,1.7
							c0.1,0.1,0.2,0.3,0.2,0.4c0.3,0.5,0.6,1,0.8,1.5c0.1,0.1,0.1,0.3,0.2,0.4c0.3,0.6,0.6,1.3,0.9,1.9c0,0.1,0,0.1,0.1,0.2
							c0.2,0.6,0.5,1.2,0.7,1.8c0.1,0.2,0.1,0.4,0.2,0.5c0.2,0.5,0.4,1.1,0.5,1.6c0,0.1,0.1,0.3,0.1,0.4c0.2,0.7,0.4,1.3,0.5,2
							c0,0.2,0.1,0.4,0.1,0.6c0.1,0.5,0.2,1,0.3,1.4c0.1,0.3,0.1,0.5,0.1,0.8c0.1,0.5,0.2,0.9,0.2,1.4c0,0.3,0.1,0.6,0.1,0.9
							c0.1,0.5,0.1,1.1,0.2,1.6c0,0.3,0.1,0.6,0.1,1c0,0.3,0.1,0.6,0.1,0.9c0,0.3,0.1,0.7,0.1,1c0,0.3,0,0.5,0,0.8
							c0,0.3,0,0.6,0,0.9C198.1,105.7,195.9,103.1,196.3,100.8z"/>
					</g>
				</g>
				<path id="XMLID_441_" class="st3" d="M177.5,76.4c-13.7,1.6-7,28-11.6,40.5c-3.3,9.2,2.8,7.9,15.1,9.4
					c9.6,1.2,17.1,0.5,19.3-10.2C202.5,105.3,199.8,73.8,177.5,76.4L177.5,76.4z"/>
			</g>
			<g id="XMLID_512_">
				<path id="XMLID_50_" class="st26" d="M193.2,100.3c0,0-7.1,22.7-9.6,25.9c-1.5,2-4.5,2.1-5.3,1.4c-0.7-0.6,0.3-15.3-0.2-19.9"/>
				<path id="XMLID_49_" class="st26" d="M168.9,86.9c-4.3,20.8-1.5,36.9,1.7,39.5c3.2,2.5,3.2,1.2,4.1,0.7
					c0.8-0.5,0.2-14.4,0.2-19.1"/>
			</g>
			<g id="XMLID_439_">
				<g id="XMLID_436_">
					<g id="XMLID_492_">
						<g id="XMLID_43_">
							<path id="XMLID_48_" class="st2" d="M199.5,52c0,0,16.3,1,19.3,5.4c3,4.3-13.2,12.3-15.1,13.3C201.9,71.7,199.5,52,199.5,52
								L199.5,52z"/>
							<path id="XMLID_394_" class="st27" d="M207,69c-1.6,0.9-2.8,1.5-3.3,1.7c-1.8,1-4.2-18.7-4.2-18.7h0c0,0,3.8,0.2,8,1
								C206.9,57.2,206.4,63.6,207,69z"/>
						</g>
						<path id="XMLID_47_" class="st28" d="M198.2,57.8c0,0,12.5-1.3,14.5,1c2,2.2-11.1,9.4-11.1,9.4L198.2,57.8L198.2,57.8z"/>
					</g>
					<path id="XMLID_407_" class="st3" d="M199.5,52c0,0,16.3,1,19.3,5.4c3,4.3-13.2,12.3-15.1,13.3C201.9,71.7,199.5,52,199.5,52
						L199.5,52z"/>
				</g>
				<g id="XMLID_432_">
					<g id="XMLID_190_">
						<g id="XMLID_53_">
							<path id="XMLID_46_" class="st22" d="M180,47c-0.3-0.9-11.8-10.2-15.6-10.2c-3.8,0-3.6,16.9-2.3,19.5
								C163.4,58.9,180.2,47.6,180,47L180,47z"/>
							<path id="XMLID_236_" class="st23" d="M162.1,56.3c-0.2-0.4-0.4-1.3-0.5-2.4c5.5-4.2,8.5-9.5,10.1-13.7
								c4.1,2.7,8.2,6.2,8.4,6.8C180.2,47.6,163.4,58.9,162.1,56.3z"/>
						</g>
						<path id="XMLID_45_" class="st28" d="M174.4,54.6c0,0-5.6-13.4-8.7-13.5c-3.1-0.1-0.7,14.6-0.5,16.1
							C165.4,58.8,174.4,54.6,174.4,54.6L174.4,54.6z"/>
					</g>
					<path id="XMLID_398_" class="st3" d="M180,47c-0.3-0.9-11.8-10.2-15.6-10.2c-3.8,0-3.6,16.9-2.3,19.5
						C163.4,58.9,180.2,47.6,180,47L180,47z"/>
				</g>
				<g id="XMLID_438_">
					<path id="XMLID_44_" class="st22" d="M183,45.5c-11.7,0-22.4,7-22.4,18c0,11,11.4,15.8,23.2,15.8c11.7,0,22.1-4.4,22.1-15.4
						C205.9,52.9,194.7,45.5,183,45.5L183,45.5z"/>
					<path id="XMLID_237_" class="st23" d="M205.6,60.7c0.2,1,0.3,2,0.3,3.1c0,11-10.4,15.4-22.1,15.4c-5.2,0-10.4-1-14.6-3
						C191.8,78.7,201.4,69,205.6,60.7z"/>
					<path id="XMLID_42_" class="st20" d="M183,45.5c-11.7,0-22.4,7-22.4,18c0,11,11.4,15.8,23.2,15.8c11.7,0,22.1-4.4,22.1-15.4
						C205.9,52.9,194.7,45.5,183,45.5L183,45.5z"/>
					<path id="XMLID_41_" class="st21" d="M183,45.5c-11.7,0-22.4,7-22.4,18c0,11,11.4,15.8,23.2,15.8c11.7,0,22.1-4.4,22.1-15.4
						C205.9,52.9,194.7,45.5,183,45.5L183,45.5z"/>
					<g id="XMLID_238_">
						<path id="XMLID_235_" class="st2" d="M188.6,78.9c1.8-3.6,1.5-8.2-5.3-13.9c-7.9-6.6,0.9-14.3,7.4-18.5
							c8.5,2.4,15.2,8.7,15.2,17.3C205.9,73.3,198.2,77.9,188.6,78.9z"/>
						<path id="XMLID_188_" class="st27" d="M189.1,77.8c0.2-0.6,0.4-1.3,0.4-2c0,0,0-0.1,0-0.1c0-0.4,0-0.7,0-1.1v0
							c8.5-2.9,13.4-8.8,16.1-14c0.2,1,0.3,2.1,0.3,3.2c0,4-1.4,7-3.6,9.4c-1.3,1.3-2.9,2.4-4.7,3.3c-0.1,0-0.1,0.1-0.2,0.1
							c-0.3,0.1-0.5,0.2-0.8,0.3c-0.4,0.1-0.7,0.3-1.1,0.4c-0.1,0.1-0.3,0.1-0.4,0.1l0,0c-1,0.3-2,0.6-3.1,0.9c0,0-0.1,0-0.1,0
							c-0.5,0.1-1,0.2-1.5,0.3c-0.6,0.1-1.1,0.2-1.7,0.2c0.1-0.3,0.3-0.6,0.4-0.9C189,78,189,77.9,189.1,77.8z"/>
					</g>
					<path id="XMLID_409_" class="st3" d="M183,45.5c-11.7,0-22.4,7-22.4,18c0,11,11.4,15.8,23.2,15.8c11.7,0,22.1-4.4,22.1-15.4
						C205.9,52.9,194.7,45.5,183,45.5L183,45.5z"/>
				</g>
				<g id="XMLID_167_">
					<path id="XMLID_40_" class="st29" d="M177.7,64c-0.7-0.1-1.3,0.2-1.4,0.8c-0.1,0.6,0.9,1,1.2,1c0.2,0,1.3,0,1.4-0.6
						C179,64.6,178.4,64.1,177.7,64L177.7,64z"/>
					<path id="XMLID_39_" class="st30" d="M188.9,65.4c0,0-0.8-5.6-6-1.7"/>
					<path id="XMLID_38_" class="st31" d="M174,62c0,0-0.8-5.6-6-1.7"/>
					<path id="XMLID_37_" class="st28" d="M181.1,68c0,0-2.7,1.7-4-0.6c0,0-2.9,1.7-4.2-1.1c0,0,1.1,7.3,3.4,7.8
						C178.6,74.6,180.1,72.1,181.1,68L181.1,68z"/>
				</g>
			</g>
		</g>
	</g>
</g>
</svg>
