<?xml version="1.0" encoding="utf-8"?>
<!-- Generator: Adobe Illustrator 23.1.0, SVG Export Plug-In . SVG Version: 6.00 Build 0)  -->
<svg version="1.1" id="Layer_1" xmlns="http://www.w3.org/2000/svg" xmlns:xlink="http://www.w3.org/1999/xlink" x="0px" y="0px"
	 viewBox="0 0 243 282" style="enable-background:new 0 0 243 282;" xml:space="preserve">
<style type="text/css">
	.st0{fill:#59C1E6;}
	.st1{fill:#03ACDC;}
	.st2{fill:#20B4DF;}
	.st3{fill:#42BEE3;}
	.st4{fill:#282828;}
	.st5{fill:none;stroke:#020202;stroke-width:2;stroke-miterlimit:10;}
</style>
<g>
	<path class="st0" d="M98,24.9c3.4-3.4,6.6-7.1,10.2-10.2c4.2-3.7,8.3-3.6,12,0c28.9,28,54.3,58.6,72,95
		c11.1,22.8,18.3,46.7,17.7,72.5c-0.4,18.9-5.8,36.3-16.9,51.8c-1,1.4-2.4,2.2-3.8,3.1c-6.9,2.5-12.9,6.7-19.9,9.1
		c-20,6.8-40.5,7.7-61,4.6c-19.1-2.8-36.5-10.6-50.3-24.4c-16.1-16-23.2-36.2-24-58.5c-0.9-25.3,6.2-48.9,16.8-71.6
		C60.5,75.6,73.4,57.1,87.1,39c3.1-2.5,5.7-5.3,6.9-9.2c0,0-0.1,0-0.1,0c2.1,0,3.2-0.8,2.9-3.1c0,0,0.1,0.2,0.1,0.2
		C97.9,26.6,98,25.7,98,24.9z M113.7,196.7c5.5,0.3,12.2-2.5,15.7-6.4c1.6-1.8,2.5-3.7,0.7-5.7c-2-2.2-3.9-1.6-6.1,0.1
		c-7,5.6-12,5.6-19.2,0.1c-2-1.6-4.1-2.6-6.1-0.4c-2.2,2.4-0.9,4.6,1.1,6.5C103.6,194.6,108.4,196.2,113.7,196.7z M58.1,182.2
		c0,2,0,3.5,0,5c0,2.5,1.3,4.3,3.8,4.3c2.8,0.1,4.1-1.8,4.1-4.5c0-1.5,0.1-3,0-4.5c-0.2-3.3,1.2-8.1-4-8
		C56.9,174.6,58.4,179.4,58.1,182.2z M170.3,182.9c-0.8-2.9,1.7-8.3-3.9-8.3c-5.2,0.1-3.9,5.2-3.9,8.7c0,3.3-1,8.1,4,8.1
		C171.7,191.3,169.7,186.3,170.3,182.9z"/>
	<path class="st1" d="M87.1,39c-13.7,18-26.6,36.6-36.2,57.2c-10.6,22.7-17.7,46.3-16.8,71.6c0.8,22.3,7.9,42.5,24,58.5
		c13.8,13.8,31.2,21.5,50.3,24.4c20.6,3.1,41,2.2,61-4.6c7-2.4,13-6.6,19.9-9.1c-0.1,2.1-1.7,3.1-3,4.4
		c-11.4,11.6-25.2,18.8-40.9,22.8c-21.4,5.4-42.9,5.4-64.1-0.5c-41.9-11.7-66.1-47.6-62.7-91.4c2.2-28.7,12.2-54.6,26.5-79.2
		C56.6,73.2,70.2,54.8,86,38C86.3,38.3,86.7,38.7,87.1,39z"/>
	<path class="st2" d="M87.1,39c-0.4-0.4-0.7-0.7-1.1-1.1c2.4-3,4.4-6.3,8-8.1C92.7,33.7,90.1,36.6,87.1,39z"/>
	<path class="st3" d="M96.7,26.8c0.3,2.3-0.8,3.1-2.9,3.1C94.3,28.3,94.9,27,96.7,26.8z"/>
	<path class="st3" d="M98,24.9c0,0.9-0.1,1.7-1.1,2.1C96.4,25.8,97.3,25.4,98,24.9z"/>
	<path class="st4" d="M113.7,196.7c-5.3-0.5-10-2.1-14-5.8c-2-1.9-3.2-4.1-1.1-6.5c2-2.3,4.1-1.2,6.1,0.4c7.2,5.5,12.1,5.5,19.2-0.1
		c2.1-1.7,4.1-2.3,6.1-0.1c1.8,2,1,3.9-0.7,5.7C125.8,194.2,119.2,197,113.7,196.7z"/>
	<path class="st4" d="M58.1,182.2c0.3-2.8-1.2-7.6,3.9-7.7c5.2-0.1,3.8,4.7,4,8c0.1,1.5,0,3,0,4.5c0,2.8-1.3,4.6-4.1,4.5
		c-2.5-0.1-3.8-1.8-3.8-4.3C58.1,185.6,58.1,184.1,58.1,182.2z"/>
	<path class="st4" d="M170.3,182.9c-0.6,3.4,1.4,8.4-3.8,8.5c-5,0-4-4.8-4-8.1c0.1-3.4-1.3-8.6,3.9-8.7
		C172,174.5,169.5,180,170.3,182.9z"/>
	<path class="st5" d="M111,13c0,0-55.2,49.9-71.1,89.4s-26.3,52.4-18.6,102S95,268,95,268s65.2,12.4,100.6-37.8S187.3,100,187.3,100
		S153.1,47.6,137,31.7C120,15,116,8,111,13z"/>
</g>
</svg>
